<svg xmlns="http://www.w3.org/2000/svg" width="37" height="46" viewBox="0 0 37 46" fill="none">
  <g clip-path="url(#clip0_3532_6594)">
    <path d="M26.4247 1.4314H1.54102V44.596H35.4603V11.282L26.4247 1.4314Z" stroke="#F0745F" stroke-width="3" stroke-linecap="round" stroke-linejoin="round"/>
    <path d="M26.4238 1.4314V11.3297H35.4594" stroke="#F0745F" stroke-width="3" stroke-miterlimit="10"/>
    <path d="M18.4914 6.70367H6.36914V18.8333H18.4914V6.70367Z" fill="#F0745F"/>
    <path d="M12.4324 12.6358C13.5364 12.6358 14.4313 11.7403 14.4313 10.6357C14.4313 9.53114 13.5364 8.63568 12.4324 8.63568C11.3285 8.63568 10.4336 9.53114 10.4336 10.6357C10.4336 11.7403 11.3285 12.6358 12.4324 12.6358Z" fill="#FFFCF5"/>
    <path d="M16.0503 16.9012C16.0503 14.8399 14.4322 13.1732 12.4334 13.1732C10.4345 13.1732 8.81641 14.8399 8.81641 16.9012H16.0503Z" fill="#FFFCF5"/>
    <path d="M29.5997 22.4321H7.40834C6.83009 22.4321 6.36133 22.9011 6.36133 23.4797V23.4865C6.36133 24.0651 6.83009 24.5342 7.40834 24.5342H29.5997C30.1779 24.5342 30.6467 24.0651 30.6467 23.4865V23.4797C30.6467 22.9011 30.1779 22.4321 29.5997 22.4321Z" fill="#F0745F" stroke="#F0745F" stroke-width="0.5" stroke-miterlimit="10"/>
    <path d="M29.5997 26.6295H7.40834C6.83009 26.6295 6.36133 27.0985 6.36133 27.6771V27.6839C6.36133 28.2625 6.83009 28.7316 7.40834 28.7316H29.5997C30.1779 28.7316 30.6467 28.2625 30.6467 27.6839V27.6771C30.6467 27.0985 30.1779 26.6295 29.5997 26.6295Z" fill="#F0745F" stroke="#F0745F" stroke-width="0.5" stroke-miterlimit="10"/>
    <path d="M29.5997 30.8269H7.40834C6.83009 30.8269 6.36133 31.296 6.36133 31.8746V31.8814C6.36133 32.46 6.83009 32.929 7.40834 32.929H29.5997C30.1779 32.929 30.6467 32.46 30.6467 31.8814V31.8746C30.6467 31.296 30.1779 30.8269 29.5997 30.8269Z" fill="#F0745F" stroke="#F0745F" stroke-width="0.5" stroke-miterlimit="10"/>
    <path d="M19.4014 35.0243H7.40834C6.83009 35.0243 6.36133 35.4933 6.36133 36.0719V36.0787C6.36133 36.6573 6.83009 37.1264 7.40834 37.1264H19.4014C19.9797 37.1264 20.4485 36.6573 20.4485 36.0787V36.0719C20.4485 35.4933 19.9797 35.0243 19.4014 35.0243Z" fill="#F0745F" stroke="#F0745F" stroke-width="0.5" stroke-miterlimit="10"/>
  </g>
  <defs>
    <clipPath id="clip0_3532_6594">
      <rect width="35.9589" height="45.2055" fill="white" transform="translate(0.521484 0.41095)"/>
    </clipPath>
  </defs>
</svg>