<svg xmlns="http://www.w3.org/2000/svg" width="43" height="48" viewBox="0 0 43 48" fill="none">
  <g clip-path="url(#clip0_3532_6639)">
    <path d="M33.4793 40.2073C35.4882 40.2073 37.1168 38.5936 37.1168 36.6029C37.1168 34.6123 35.4882 32.9985 33.4793 32.9985C31.4704 32.9985 29.8418 34.6123 29.8418 36.6029C29.8418 38.5936 31.4704 40.2073 33.4793 40.2073Z" stroke="#F0745F" stroke-width="1.72" stroke-miterlimit="10"/>
    <path d="M39.4222 47.8314V45.3988C39.4222 42.6473 36.84 40.4224 33.6516 40.4224H33.2999C30.1115 40.4224 27.5293 42.6547 27.5293 45.3988V47.8314" stroke="#F0745F" stroke-width="1.7" stroke-miterlimit="10"/>
    <path d="M21.5027 40.2073C23.5116 40.2073 25.1402 38.5936 25.1402 36.6029C25.1402 34.6123 23.5116 32.9985 21.5027 32.9985C19.4938 32.9985 17.8652 34.6123 17.8652 36.6029C17.8652 38.5936 19.4938 40.2073 21.5027 40.2073Z" stroke="#F0745F" stroke-width="1.72" stroke-miterlimit="10"/>
    <path d="M27.4456 47.8314V45.3988C27.4456 42.6473 24.8635 40.4224 21.6751 40.4224H21.3233C18.1349 40.4224 15.5527 42.6547 15.5527 45.3988V47.8314" stroke="#F0745F" stroke-width="1.7" stroke-miterlimit="10"/>
    <path d="M9.52811 40.2073C11.537 40.2073 13.1656 38.5936 13.1656 36.6029C13.1656 34.6123 11.537 32.9985 9.52811 32.9985C7.51918 32.9985 5.89062 34.6123 5.89062 36.6029C5.89062 38.5936 7.51918 40.2073 9.52811 40.2073Z" stroke="#F0745F" stroke-width="1.72" stroke-miterlimit="10"/>
    <path d="M15.471 47.8314V45.3988C15.471 42.6473 12.8889 40.4224 9.70047 40.4224H9.3487C6.16029 40.4224 3.57812 42.6547 3.57812 45.3988V47.8314" stroke="#F0745F" stroke-width="1.7" stroke-miterlimit="10"/>
    <path d="M21.5026 12.6255C24.8425 12.6255 27.5501 9.94252 27.5501 6.63295C27.5501 3.32338 24.8425 0.640442 21.5026 0.640442C18.1626 0.640442 15.4551 3.32338 15.4551 6.63295C15.4551 9.94252 18.1626 12.6255 21.5026 12.6255Z" fill="#F0745F"/>
    <path d="M33.3972 25.99V21.9406C33.3972 17.3646 28.2328 13.6564 21.856 13.6564H21.1525C14.7757 13.6564 9.61133 17.3646 9.61133 21.9406V25.99H33.3972Z" fill="#F0745F"/>
    <path d="M0.853516 25.9899H42.1456" stroke="#F0745F" stroke-width="3" stroke-miterlimit="10"/>
  </g>
  <defs>
    <clipPath id="clip0_3532_6639">
      <rect width="41.2921" height="47.191" fill="white" transform="translate(0.853516 0.640442)"/>
    </clipPath>
  </defs>
</svg>