<svg xmlns="http://www.w3.org/2000/svg" width="112" height="107" viewBox="0 0 112 107" fill="none">
  <rect x="59.1816" y="63.0903" width="8.45434" height="45.3931" transform="rotate(-47.3237 59.1816 63.0903)" fill="#7E5852"/>
  <mask id="mask0_3532_6327" style="mask-type:alpha" maskUnits="userSpaceOnUse" x="73" y="69" width="37" height="36">
    <path d="M73.7352 80.4545C73.3292 80.0801 73.3035 79.4475 73.6779 79.0414L82.2582 69.7353C82.6325 69.3293 83.2652 69.3036 83.6712 69.678L108.204 92.2973C110.234 94.1691 110.362 97.3323 108.491 99.3625L105.333 102.787C103.461 104.817 100.298 104.946 98.2679 103.074L73.7352 80.4545Z" fill="#580D00"/>
  </mask>
  <g mask="url(#mask0_3532_6327)">
    <path d="M73.2918 80.0433C72.8858 79.669 72.8601 79.0363 73.2345 78.6303L81.8148 69.3242C82.1892 68.9181 82.8218 68.8925 83.2278 69.2668L107.761 91.8861C109.791 93.758 109.919 96.9212 108.047 98.9514L104.89 102.376C103.018 104.406 99.8547 104.534 97.8245 102.663L73.2918 80.0433Z" fill="#580D00"/>
    <rect x="91.1211" y="96.4861" width="15.3715" height="6.21894" transform="rotate(-47.3237 91.1211 96.4861)" fill="#F0745F"/>
  </g>
  <circle cx="39.1974" cy="39.1974" r="39.1974" fill="#580D00"/>
  <circle cx="39.1973" cy="39.1973" r="36.1231" fill="#F0745F"/>
  <mask id="mask1_3532_6327" style="mask-type:alpha" maskUnits="userSpaceOnUse" x="4" y="4" width="70" height="70">
    <circle cx="39.1973" cy="39.1975" r="34.5859" fill="#F3F0EB"/>
  </mask>
  <g mask="url(#mask1_3532_6327)">
    <circle cx="39.1973" cy="39.1975" r="34.5859" fill="#E6D8C5"/>
    <ellipse cx="39.1974" cy="33.0488" rx="39.1974" ry="34.5859" fill="#FDF5EA"/>
  </g>
  <ellipse cx="54.6249" cy="17.142" rx="9.80588" ry="2.46155" transform="rotate(37.4708 54.6249 17.142)" fill="white"/>
  <ellipse cx="65.0336" cy="28.1715" rx="2.16695" ry="2.11212" transform="rotate(67.5918 65.0336 28.1715)" fill="white"/>
</svg>