<svg width="244" height="244" viewBox="0 0 244 244" fill="none" xmlns="http://www.w3.org/2000/svg">
<mask id="path-1-inside-1_3728_944" fill="white">
<path fill-rule="evenodd" clip-rule="evenodd" d="M243.998 192.776L243.998 153.662L192.775 153.662L192.775 91.2657L243.998 91.2657L243.998 52.1515L192.775 52.1515L192.775 1.93248e-06L153.661 -3.94877e-06L153.661 52.1515L91.2651 52.1515L91.2652 0.00134027L52.1509 0.00133439L52.1509 52.1515L-0.000597372 52.1515L-0.000599082 91.2657L52.1509 91.2657L52.1509 153.662L-0.00060181 153.662L-0.000603519 192.776L52.1508 192.776L52.1508 244L91.2651 244L91.2651 192.776L153.661 192.776L153.661 243.999L192.775 243.999L192.775 192.776L243.998 192.776ZM91.2651 153.662L153.661 153.662L153.661 91.2657L91.2651 91.2657L91.2651 153.662Z"/>
</mask>
<path fill-rule="evenodd" clip-rule="evenodd" d="M243.998 192.776L243.998 153.662L192.775 153.662L192.775 91.2657L243.998 91.2657L243.998 52.1515L192.775 52.1515L192.775 1.93248e-06L153.661 -3.94877e-06L153.661 52.1515L91.2651 52.1515L91.2652 0.00134027L52.1509 0.00133439L52.1509 52.1515L-0.000597372 52.1515L-0.000599082 91.2657L52.1509 91.2657L52.1509 153.662L-0.00060181 153.662L-0.000603519 192.776L52.1508 192.776L52.1508 244L91.2651 244L91.2651 192.776L153.661 192.776L153.661 243.999L192.775 243.999L192.775 192.776L243.998 192.776ZM91.2651 153.662L153.661 153.662L153.661 91.2657L91.2651 91.2657L91.2651 153.662Z" fill="#F0745F"/>
<path d="M243.998 153.662L245.998 153.662L245.998 151.662L243.998 151.662L243.998 153.662ZM243.998 192.776L243.998 194.776L245.998 194.776L245.998 192.776L243.998 192.776ZM192.775 153.662L190.775 153.662L190.775 155.662L192.775 155.662L192.775 153.662ZM192.775 91.2657L192.775 89.2657L190.775 89.2657L190.775 91.2657L192.775 91.2657ZM243.998 91.2657L243.998 93.2657L245.998 93.2657L245.998 91.2657L243.998 91.2657ZM243.998 52.1515L245.998 52.1515L245.998 50.1515L243.998 50.1515L243.998 52.1515ZM192.775 52.1515L190.775 52.1515L190.775 54.1515L192.775 54.1515L192.775 52.1515ZM192.775 1.93248e-06L194.775 2.1662e-06L194.775 -2L192.775 -2L192.775 1.93248e-06ZM153.661 -3.94877e-06L153.661 -2L151.661 -2L151.661 -4.32878e-06L153.661 -3.94877e-06ZM153.661 52.1515L153.661 54.1515L155.661 54.1515L155.661 52.1515L153.661 52.1515ZM91.2651 52.1515L89.2651 52.1515L89.2651 54.1515L91.2651 54.1515L91.2651 52.1515ZM91.2652 0.00134027L93.2652 0.00134036L93.2652 -1.99866L91.2652 -1.99866L91.2652 0.00134027ZM52.1509 0.00133439L52.1509 -1.99867L50.1509 -1.99867L50.1509 0.0013343L52.1509 0.00133439ZM52.1509 52.1515L52.1509 54.1515L54.1509 54.1515L54.1509 52.1515L52.1509 52.1515ZM-0.000597372 52.1515L-0.000597285 50.1515L-2.0006 50.1515L-2.0006 52.1515L-0.000597372 52.1515ZM-0.000599082 91.2657L-2.0006 91.2657L-2.0006 93.2657L-0.00059917 93.2657L-0.000599082 91.2657ZM52.1509 91.2657L54.1509 91.2657L54.1509 89.2657L52.1509 89.2657L52.1509 91.2657ZM52.1509 153.662L52.1509 155.662L54.1509 155.662L54.1509 153.662L52.1509 153.662ZM-0.00060181 153.662L-0.000601722 151.662L-2.0006 151.662L-2.0006 153.662L-0.00060181 153.662ZM-0.000603519 192.776L-2.0006 192.776L-2.0006 194.776L-0.000603607 194.776L-0.000603519 192.776ZM52.1508 192.776L54.1508 192.776L54.1508 190.776L52.1508 190.776L52.1508 192.776ZM52.1508 244L50.1508 244L50.1508 246L52.1508 246L52.1508 244ZM91.2651 244L91.2651 246L93.2651 246L93.2651 244L91.2651 244ZM91.2651 192.776L91.2651 190.776L89.2651 190.776L89.2651 192.776L91.2651 192.776ZM153.661 192.776L155.661 192.776L155.661 190.776L153.661 190.776L153.661 192.776ZM153.661 243.999L151.661 243.999L151.661 245.999L153.661 245.999L153.661 243.999ZM192.775 243.999L192.775 245.999L194.775 245.999L194.775 243.999L192.775 243.999ZM192.775 192.776L192.775 190.776L190.775 190.776L190.775 192.776L192.775 192.776ZM91.2651 153.662L89.2651 153.662L89.2651 155.662L91.2651 155.662L91.2651 153.662ZM153.661 153.662L153.661 155.662L155.661 155.662L155.661 153.662L153.661 153.662ZM153.661 91.2657L155.661 91.2657L155.661 89.2657L153.661 89.2657L153.661 91.2657ZM91.2651 91.2657L91.2651 89.2657L89.2651 89.2657L89.2651 91.2657L91.2651 91.2657ZM241.998 153.662L241.998 192.776L245.998 192.776L245.998 153.662L241.998 153.662ZM192.775 155.662L243.998 155.662L243.998 151.662L192.775 151.662L192.775 155.662ZM190.775 91.2657L190.775 153.662L194.775 153.662L194.775 91.2657L190.775 91.2657ZM243.998 89.2657L192.775 89.2657L192.775 93.2657L243.998 93.2657L243.998 89.2657ZM241.998 52.1515L241.998 91.2657L245.998 91.2657L245.998 52.1515L241.998 52.1515ZM192.775 54.1515L243.998 54.1515L243.998 50.1515L192.775 50.1515L192.775 54.1515ZM190.775 1.69877e-06L190.775 52.1515L194.775 52.1515L194.775 2.1662e-06L190.775 1.69877e-06ZM153.661 2L192.775 2L192.775 -2L153.661 -2L153.661 2ZM155.661 52.1515L155.661 -3.56877e-06L151.661 -4.32878e-06L151.661 52.1515L155.661 52.1515ZM91.2651 54.1515L153.661 54.1515L153.661 50.1515L91.2651 50.1515L91.2651 54.1515ZM89.2652 0.00134018L89.2651 52.1515L93.2651 52.1515L93.2652 0.00134036L89.2652 0.00134018ZM52.1509 2.00133L91.2652 2.00134L91.2652 -1.99866L52.1509 -1.99867L52.1509 2.00133ZM54.1509 52.1515L54.1509 0.00133447L50.1509 0.0013343L50.1509 52.1515L54.1509 52.1515ZM-0.00059746 54.1515L52.1509 54.1515L52.1509 50.1515L-0.000597285 50.1515L-0.00059746 54.1515ZM1.9994 91.2657L1.9994 52.1515L-2.0006 52.1515L-2.0006 91.2657L1.9994 91.2657ZM52.1509 89.2657L-0.000598995 89.2657L-0.00059917 93.2657L52.1509 93.2657L52.1509 89.2657ZM54.1509 153.662L54.1509 91.2657L50.1509 91.2657L50.1509 153.662L54.1509 153.662ZM-0.000601897 155.662L52.1509 155.662L52.1509 151.662L-0.000601722 151.662L-0.000601897 155.662ZM1.9994 192.776L1.9994 153.662L-2.0006 153.662L-2.0006 192.776L1.9994 192.776ZM52.1508 190.776L-0.000603432 190.776L-0.000603607 194.776L52.1508 194.776L52.1508 190.776ZM54.1508 244L54.1508 192.776L50.1508 192.776L50.1508 244L54.1508 244ZM91.2651 242L52.1508 242L52.1508 246L91.2651 246L91.2651 242ZM89.2651 192.776L89.2651 244L93.2651 244L93.2651 192.776L89.2651 192.776ZM153.661 190.776L91.2651 190.776L91.2651 194.776L153.661 194.776L153.661 190.776ZM155.661 243.999L155.661 192.776L151.661 192.776L151.661 243.999L155.661 243.999ZM192.775 241.999L153.661 241.999L153.661 245.999L192.775 245.999L192.775 241.999ZM190.775 192.776L190.775 243.999L194.775 243.999L194.775 192.776L190.775 192.776ZM243.998 190.776L192.775 190.776L192.775 194.776L243.998 194.776L243.998 190.776ZM91.2651 155.662L153.661 155.662L153.661 151.662L91.2651 151.662L91.2651 155.662ZM155.661 153.662L155.661 91.2657L151.661 91.2657L151.661 153.662L155.661 153.662ZM153.661 89.2657L91.2651 89.2657L91.2651 93.2657L153.661 93.2657L153.661 89.2657ZM89.2651 91.2657L89.2651 153.662L93.2651 153.662L93.2651 91.2657L89.2651 91.2657Z" fill="#F0745F" mask="url(#path-1-inside-1_3728_944)"/>
</svg>
