<svg width="244" height="244" viewBox="0 0 244 244" fill="none" xmlns="http://www.w3.org/2000/svg">
<mask id="path-1-inside-1_3728_945" fill="white">
<path fill-rule="evenodd" clip-rule="evenodd" d="M91.2659 0L52.1515 0V51.2201L3.23895e-06 51.2201L0 90.3345L52.1515 90.3346V152.732H3.23895e-06L0 191.847H52.1515L52.1515 244H91.2659V191.847H153.664V244H192.778V191.847H244V152.732H192.778V90.3346L244 90.3346V51.2201L192.778 51.2201V0L153.664 0V51.2201L91.2659 51.2201V0ZM153.664 152.732V90.3346L91.2659 90.3346L91.2659 152.732H153.664Z"/>
</mask>
<path d="M52.1515 0V-2L50.1515 -2V0L52.1515 0ZM91.2659 0L93.2659 0V-2L91.2659 -2V0ZM52.1515 51.2201L52.1515 53.2201L54.1515 53.2201V51.2201H52.1515ZM3.23895e-06 51.2201L3.38524e-06 49.2201L-2 49.2201L-2 51.2201L3.23895e-06 51.2201ZM0 90.3345L-2 90.3345L-2 92.3345L-2.92586e-07 92.3345L0 90.3345ZM52.1515 90.3346H54.1515V88.3346L52.1515 88.3346L52.1515 90.3346ZM52.1515 152.732V154.732H54.1515V152.732H52.1515ZM3.23895e-06 152.732L3.23895e-06 150.732H-2L-2 152.732L3.23895e-06 152.732ZM0 191.847L-2 191.847L-2 193.847H0L0 191.847ZM52.1515 191.847H54.1515V189.847H52.1515V191.847ZM52.1515 244H50.1515V246H52.1515V244ZM91.2659 244V246H93.2659V244H91.2659ZM91.2659 191.847V189.847H89.2659V191.847H91.2659ZM153.664 191.847H155.664V189.847H153.664V191.847ZM153.664 244H151.664V246H153.664V244ZM192.778 244V246H194.778V244H192.778ZM192.778 191.847V189.847H190.778V191.847H192.778ZM244 191.847V193.847H246V191.847H244ZM244 152.732H246V150.732H244V152.732ZM192.778 152.732H190.778V154.732H192.778V152.732ZM192.778 90.3346L192.778 88.3346L190.778 88.3346V90.3346H192.778ZM244 90.3346L244 92.3346L246 92.3346V90.3346H244ZM244 51.2201H246V49.2201L244 49.2201L244 51.2201ZM192.778 51.2201L190.778 51.2201V53.2201L192.778 53.2201L192.778 51.2201ZM192.778 0L194.778 0V-2H192.778V0ZM153.664 0V-2H151.664V0L153.664 0ZM153.664 51.2201L153.664 53.2201L155.664 53.2201V51.2201H153.664ZM91.2659 51.2201H89.2659V53.2201L91.2659 53.2201L91.2659 51.2201ZM153.664 152.732V154.732H155.664V152.732H153.664ZM153.664 90.3346H155.664V88.3346L153.664 88.3346L153.664 90.3346ZM91.2659 90.3346L91.2659 88.3346L89.2659 88.3346V90.3346H91.2659ZM91.2659 152.732H89.2659V154.732H91.2659V152.732ZM52.1515 2L91.2659 2V-2L52.1515 -2V2ZM54.1515 51.2201V0L50.1515 0V51.2201H54.1515ZM3.09266e-06 53.2201L52.1515 53.2201L52.1515 49.2201L3.38524e-06 49.2201L3.09266e-06 53.2201ZM2 90.3345L2 51.2201L-2 51.2201L-2 90.3345L2 90.3345ZM52.1515 88.3346L2.92586e-07 88.3345L-2.92586e-07 92.3345L52.1515 92.3346L52.1515 88.3346ZM54.1515 152.732V90.3346H50.1515V152.732H54.1515ZM3.23895e-06 154.732H52.1515V150.732H3.23895e-06L3.23895e-06 154.732ZM2 191.847L2 152.732L-2 152.732L-2 191.847L2 191.847ZM52.1515 189.847H0L0 193.847H52.1515L52.1515 189.847ZM54.1515 244L54.1515 191.847H50.1515L50.1515 244H54.1515ZM91.2659 242H52.1515V246H91.2659V242ZM89.2659 191.847V244H93.2659V191.847H89.2659ZM153.664 189.847H91.2659V193.847H153.664V189.847ZM155.664 244V191.847H151.664V244H155.664ZM192.778 242H153.664V246H192.778V242ZM190.778 191.847V244H194.778V191.847H190.778ZM244 189.847H192.778V193.847H244V189.847ZM242 152.732V191.847H246V152.732H242ZM192.778 154.732H244V150.732H192.778V154.732ZM190.778 90.3346V152.732H194.778V90.3346H190.778ZM244 88.3346L192.778 88.3346L192.778 92.3346L244 92.3346L244 88.3346ZM242 51.2201V90.3346H246V51.2201H242ZM192.778 53.2201L244 53.2201L244 49.2201L192.778 49.2201L192.778 53.2201ZM190.778 0V51.2201L194.778 51.2201V0L190.778 0ZM153.664 2L192.778 2V-2L153.664 -2V2ZM155.664 51.2201V0L151.664 0V51.2201H155.664ZM91.2659 53.2201L153.664 53.2201L153.664 49.2201L91.2659 49.2201L91.2659 53.2201ZM89.2659 0V51.2201H93.2659V0L89.2659 0ZM155.664 152.732V90.3346H151.664V152.732H155.664ZM153.664 88.3346L91.2659 88.3346L91.2659 92.3346L153.664 92.3346L153.664 88.3346ZM89.2659 90.3346L89.2659 152.732H93.2659L93.2659 90.3346H89.2659ZM91.2659 154.732H153.664V150.732H91.2659V154.732Z" fill="#F0745F" mask="url(#path-1-inside-1_3728_945)"/>
</svg>
