<svg width="265" height="213" viewBox="0 0 265 213" fill="none" xmlns="http://www.w3.org/2000/svg">
<path d="M68.1222 202.884C46.7003 219.092 15.2306 214.853 6.98733 189.287C5.60563 185.001 4.42183 180.646 3.4421 176.233C-1.06698 155.924 -1.14818 134.882 3.204 114.539C7.55614 94.1955 16.2396 75.0286 28.6633 58.3421C41.0871 41.6557 56.9596 27.8414 75.2009 17.8392C93.4421 7.83707 113.624 1.88178 134.373 0.378617C155.122 -1.12455 175.952 1.85968 195.444 9.12824C214.937 16.3968 232.635 27.7791 247.334 42.5006C250.527 45.6994 253.563 49.0394 256.434 52.5085C273.558 73.2054 260.211 102.018 235.027 111.365L208.567 121.186C197.997 125.109 186.462 119.213 178.495 111.234C173.669 106.4 167.857 102.662 161.456 100.275C155.055 97.8886 148.215 96.9086 141.402 97.4022C134.588 97.8959 127.961 99.8514 121.971 103.136C115.981 106.42 110.769 110.957 106.69 116.436C102.61 121.915 99.7585 128.209 98.3293 134.89C96.9002 141.57 96.9269 148.479 98.4075 155.148C100.851 166.155 99.621 179.052 90.6296 185.855L68.1222 202.884Z" fill="#E69754"/>
</svg>
