<svg xmlns="http://www.w3.org/2000/svg" width="151" height="150" viewBox="0 0 151 150" fill="none">
  <path d="M74.3618 10.5712C73.6071 9.06181 72.5134 7.7548 71.1626 6.7431C69.5931 5.56733 67.6517 4.99312 65.694 5.13531C63.7362 5.27749 61.8932 6.1142 60.5097 7.50324C59.7605 5.99936 58.6011 4.7361 57.1738 3.85564C55.7465 2.97519 54.1004 2.50488 52.4215 2.50488H45.5146C41.5389 2.50488 37.7218 4.08533 34.9109 6.89622C32.1 9.70711 30.5195 13.5242 30.5195 17.5V27.4967H38.4436C42.8896 27.4967 47.2591 26.3428 51.1255 24.1553C54.9918 21.9624 58.2292 18.8124 60.5151 14.9953C61.3081 18.1671 62.719 21.1476 64.6604 23.7725C66.6072 26.3975 69.0517 28.6123 71.8517 30.2966L75.5102 32.495V15.4273C75.5102 13.743 75.1165 12.0805 74.3618 10.5712Z" fill="url(#paint0_linear_3532_6468)"/>
  <path d="M82.7707 88.2698L68.0054 72.4927L60.5078 79.9902L69.2741 88.6416L82.7707 88.2643V88.2698Z" fill="#F0745F"/>
  <path d="M73.0039 137.487L99.2589 87.3614C99.6363 86.645 100.2 86.0435 100.889 85.6279C101.578 85.2068 102.371 84.988 103.18 84.988C103.94 84.988 104.689 85.1849 105.357 85.5568C106.018 85.9287 106.576 86.47 106.97 87.1208C107.364 87.7716 107.582 88.5153 107.61 89.2755C107.631 90.0356 107.462 90.7903 107.106 91.4684L85.8115 132.122C84.9639 133.741 83.6897 135.092 82.1311 136.038C80.5671 136.984 78.7788 137.482 76.9523 137.482H73.0039V137.487Z" fill="#F0745F"/>
  <path d="M100.502 127.491L105.5 117.494H118.002V127.491H100.502Z" fill="#F0745F"/>
  <path d="M145.502 137.488L125.503 117.489H105.504L125.503 137.488H145.502Z" fill="#F0745F"/>
  <path d="M45.507 34.994C46.8851 34.994 48.0062 33.8729 48.0062 32.4948C48.0062 31.1167 46.8851 29.9956 45.507 29.9956C44.1289 29.9956 43.0078 31.1167 43.0078 32.4948C43.0078 33.8729 44.1289 34.994 45.507 34.994Z" fill="#3A3A3A"/>
  <path d="M60.5011 34.994C61.8792 34.994 63.0003 33.8729 63.0003 32.4948C63.0003 31.1167 61.8792 29.9956 60.5011 29.9956C59.123 29.9956 58.002 31.1167 58.002 32.4948C58.002 33.8729 59.123 34.994 60.5011 34.994Z" fill="#3A3A3A"/>
  <path d="M58.0026 39.9923V37.4932H53.0042V39.9923C53.0042 40.6541 52.7417 41.2884 52.2714 41.7587C51.8011 42.229 51.1667 42.4915 50.505 42.4915H48.0059V47.4899H50.505C52.4956 47.4899 54.3987 46.6969 55.8042 45.2915C57.2096 43.886 58.0026 41.9775 58.0026 39.9923Z" fill="#3A3A3A"/>
  <path d="M149.516 92.2783C150.123 91.3158 150.462 90.2056 150.5 89.0627C150.533 87.9197 150.259 86.7932 149.713 85.7924C149.16 84.7917 148.351 83.9604 147.372 83.3808C146.388 82.8011 145.272 82.4948 144.129 82.4948H103.01C101.577 82.5386 100.194 83.0144 99.0454 83.8729L98.7775 82.1886C98.4657 80.2253 97.6892 78.3605 96.5134 76.7582C95.3377 75.1504 93.7955 73.8489 92.0182 72.9575L72.6482 63.2725L70.4279 54.3859C70.3131 53.9375 70.0779 53.5273 69.7498 53.2047C69.4162 52.882 69.0006 52.6578 68.5522 52.5539C71.4341 49.0047 73.0091 44.5642 73.0037 39.9924V38.5268L77.2637 34.2667C77.4934 34.0315 77.6794 33.7526 77.8051 33.4519C77.9309 33.1511 77.9965 32.823 77.9965 32.4949V15.4272C77.9965 13.3545 77.5044 11.3093 76.5802 9.45538C75.656 7.6015 74.3107 5.98825 72.6537 4.74139C71.0076 3.51641 69.0443 2.79455 66.9936 2.65236C64.9483 2.51018 62.903 2.96408 61.1038 3.95391C60.021 2.70705 58.6867 1.71175 57.1883 1.02817C55.6899 0.344589 54.0602 -0.00540555 52.4087 6.31099e-05H45.5018C40.8643 6.31099e-05 36.4128 1.84847 33.1316 5.12967C29.8504 8.41086 28.0075 12.8569 28.002 17.4998V27.4965C28.002 27.9887 28.1497 28.4754 28.4231 28.8855V28.9019L33.0004 35.7542V39.9979C33.0004 44.5751 34.5699 49.0102 37.4519 52.5594C36.998 52.6633 36.5824 52.8875 36.2542 53.2101C35.9207 53.5328 35.6855 53.9429 35.5761 54.3914L33.3559 63.2779L13.9858 72.963C12.2085 73.8543 10.6664 75.1559 9.49061 76.7637C8.31485 78.3715 7.5383 80.2308 7.22658 82.194L0.527473 124.609C0.434506 125.189 0.549347 125.785 0.855592 126.288L8.35313 138.789C8.57734 139.161 8.88906 139.467 9.26639 139.681C9.64373 139.894 10.0648 140.003 10.4968 140.003H17.9944V147.501C17.9944 148.163 18.2569 148.797 18.7272 149.267C19.1975 149.737 19.8318 150 20.4936 150H147.984C148.646 150 149.281 149.737 149.751 149.267C150.221 148.797 150.484 148.163 150.484 147.501V137.504C150.484 136.842 150.221 136.208 149.751 135.738C149.281 135.267 148.646 135.005 147.984 135.005H146.519L131.808 120.294L149.494 92.2892L149.51 92.2783H149.516ZM145.502 88.8713C145.502 89.1338 145.431 89.3853 145.288 89.6096L128.204 116.658L127.269 115.722C126.799 115.252 126.165 114.99 125.503 114.99H105.504C105.039 114.99 104.585 115.121 104.191 115.367C103.798 115.613 103.48 115.963 103.273 116.379L98.2743 126.375C98.0829 126.758 97.9954 127.179 98.0118 127.606C98.0337 128.032 98.1595 128.448 98.3837 128.809C98.6079 129.17 98.9196 129.471 99.2915 129.678C99.6634 129.886 100.084 129.996 100.511 129.996H114.473L117.529 133.053C116.151 134.305 114.358 134.999 112.493 134.994H86.9487C87.3534 134.458 87.7144 133.889 88.0261 133.293L109.321 92.6392C110.158 91.0588 110.344 89.2103 109.841 87.4932H144.124C144.49 87.4932 144.84 87.6408 145.097 87.8979C145.354 88.1549 145.502 88.5049 145.502 88.8713ZM106.187 121.711L109.469 124.992H104.552L106.193 121.711H106.187ZM47.033 134.989L64.2921 124.631C64.5874 124.456 64.8444 124.215 65.0413 123.936C65.2436 123.657 65.3803 123.335 65.4514 122.996C65.5225 122.657 65.5225 122.307 65.4514 121.973C65.3803 121.634 65.2382 121.317 65.0413 121.038L64.0843 119.698L76.3778 109.997H84.5917L71.4998 134.994H47.033V134.989ZM70.5045 84.994C70.0943 84.994 69.6951 85.0979 69.3342 85.2893L64.0405 79.9957L68.0053 76.0309L76.9684 84.994H70.5045ZM71.7076 89.9924H84.4714L89.8581 95.379L84.0886 104.993H75.5028C74.9396 104.993 74.3927 105.184 73.9552 105.529L61.1695 115.624L54.5524 106.36L61.7655 102.155C62.0335 102.002 62.2632 101.799 62.4601 101.559L71.7076 89.9978V89.9924ZM103.185 87.4932C103.519 87.4932 103.841 87.5807 104.131 87.7393C104.421 87.9033 104.662 88.1385 104.837 88.4229C105.006 88.7072 105.105 89.0299 105.116 89.3635C105.127 89.6971 105.05 90.0252 104.897 90.3205L83.6019 130.975C82.984 132.161 82.0598 133.162 80.9223 133.867C79.7848 134.573 78.4832 134.961 77.1434 134.994L101.479 88.5322C101.643 88.2205 101.889 87.958 102.19 87.7776C102.491 87.5971 102.835 87.4987 103.191 87.4987L103.185 87.4932ZM38.0097 39.9979V30.0011H38.4308C42.4666 29.9902 46.4478 29.1152 50.1228 27.4473C53.7922 25.7739 57.068 23.3403 59.7257 20.3052C61.5796 24.4067 64.4288 27.9887 68.0108 30.7121V40.0033C68.0108 43.979 66.4303 47.7962 63.6194 50.6071C60.8085 53.4179 56.9914 54.9984 53.0157 54.9984C49.04 54.9984 45.2228 53.4179 42.412 50.6071C39.6011 47.7962 38.0206 43.979 38.0206 40.0033H38.0097V39.9979ZM69.6623 8.74445C70.6959 9.52647 71.538 10.5327 72.1177 11.6975C72.6974 12.8569 73.0037 14.1366 73.0037 15.4326V28.0871C68.0545 25.0903 64.4671 20.2833 63.0069 14.6889V8.65695C63.9858 7.97337 65.1561 7.61244 66.3483 7.62885C67.5405 7.64525 68.6998 8.039 69.6623 8.74992V8.74445ZM33.0059 17.4998C33.0059 14.1858 34.3293 11.0085 36.6699 8.66789C39.0104 6.32731 42.1877 5.00389 45.5018 5.00389H52.4087C53.5297 5.00389 54.6399 5.28826 55.6188 5.83513C56.5977 6.38746 57.418 7.18042 57.9976 8.1429V14.2897C55.8867 17.5654 52.9883 20.2615 49.5704 22.1317C46.1525 24.002 42.319 24.9864 38.4198 24.9973H32.9949V17.4998H33.0059ZM5.6188 124.483L12.1757 82.9651C12.3617 81.7839 12.8265 80.6683 13.5319 79.7058C14.2374 78.7433 15.1616 77.9613 16.228 77.4254L35.2425 67.9208L38.0042 69.9935C42.3354 73.2309 47.5962 74.9809 53.0048 74.9918V69.9935C48.679 69.9825 44.4736 68.5826 41.0065 65.9959L38.3323 63.9943L39.9565 57.4976H43.3362C46.2947 59.1382 49.6196 59.9967 53.0048 59.9967C56.3899 59.9967 59.7148 59.1382 62.6733 57.4976H66.053L68.0819 65.6021C68.1694 65.9521 68.3334 66.2802 68.5576 66.5591C68.7818 66.838 69.0662 67.0677 69.3889 67.2318L89.787 77.4308C90.8534 77.9668 91.7776 78.7488 92.483 79.7113C93.1885 80.6738 93.6533 81.7894 93.8392 82.9706L94.9767 90.1674L93.8557 92.3111L87.2769 85.7323C86.8065 85.262 86.1722 84.9995 85.5105 84.9995H84.0449L69.7771 70.7317C69.3068 70.2614 68.6725 69.9989 68.0108 69.9989C67.3491 69.9989 66.7147 70.2614 66.2444 70.7317L58.7468 78.2293C58.5172 78.459 58.3312 78.7379 58.2054 79.0386C58.0797 79.3394 58.014 79.6675 58.014 79.9957C58.014 80.3238 58.0797 80.6464 58.2054 80.9527C58.3312 81.2589 58.5172 81.5323 58.7468 81.762L66.053 89.0682L58.8508 98.0696L33.0113 113.141V104.993H28.013V117.494C28.013 117.932 28.1278 118.364 28.3466 118.747C28.5653 119.129 28.8825 119.441 29.2653 119.66C29.6481 119.879 30.0801 119.993 30.5176 119.993C30.9551 119.993 31.3871 119.873 31.7699 119.654L50.2212 108.892L59.4031 121.743L37.3206 134.994H11.9242L5.6188 124.489V124.483ZM145.502 144.991H23.0091V139.992H145.502V144.991ZM126.536 134.994L111.536 119.993H124.464L139.464 134.994H126.536Z" fill="#3A3A3A"/>
  <defs>
    <linearGradient id="paint0_linear_3532_6468" x1="73.4157" y1="8.88681" x2="33.1882" y2="32.1177" gradientUnits="userSpaceOnUse">
      <stop stop-color="#FF964A"/>
      <stop offset="0.53" stop-color="#F58156"/>
      <stop offset="1" stop-color="#F0745F"/>
    </linearGradient>
  </defs>
</svg>