<svg xmlns="http://www.w3.org/2000/svg" width="151" height="150" viewBox="0 0 151 150" fill="none">
  <mask id="mask0_3532_6429" style="mask-type:luminance" maskUnits="userSpaceOnUse" x="0" y="0" width="151" height="150">
    <path d="M150.5 0H0.5V150H150.5V0Z" fill="white"/>
  </mask>
  <g mask="url(#mask0_3532_6429)">
    <path d="M46.9789 108.814L46.5742 117.499C46.5742 120.425 51.9775 119.205 55.9588 131.718C58.8026 137.121 60.5089 138.258 64.2332 143.077C65.2066 145.488 67.5473 147.069 70.145 147.069H80.8476C83.4453 147.069 85.786 145.488 86.7594 143.077C88.9415 137.684 91.5064 137.695 94.0658 132.292C98.3315 120.632 104.019 120.999 104.019 118.073V108.82C104.019 106.402 102.056 104.45 99.6386 104.45H51.3376C48.9258 104.45 46.968 106.408 46.968 108.82H46.9789V108.814Z" fill="#F0745F"/>
    <path d="M87.8371 140.413C86.3331 139.812 84.6323 140.539 84.0253 142.043C83.5222 143.295 82.2479 144.143 80.8533 144.143H70.1508C68.7562 144.143 67.482 143.301 66.9788 142.043C66.3773 140.539 64.671 139.812 63.167 140.413C61.6631 141.015 60.9357 142.721 61.5373 144.22C62.9428 147.731 66.3226 149.995 70.1508 149.995H80.8533C84.6761 149.995 88.0558 147.725 89.4668 144.22C90.0684 142.716 89.341 141.015 87.8371 140.413Z" fill="#3A3A3A"/>
    <path d="M122.242 125.319C121.449 121.217 118.917 117.663 115.307 115.568C115.964 115.032 116.582 114.436 117.145 113.785C119.918 110.564 121.148 106.298 120.514 102.093C119.486 95.2621 116.576 88.8745 112.103 83.6299C108.75 79.7032 104.638 76.5368 100.027 74.3109C105.666 68.2952 109.128 60.2122 109.128 51.3362C109.128 35.9742 98.7696 22.9856 84.6763 18.9824C86.5959 16.691 87.6459 13.8253 87.6459 10.801C87.6459 4.84541 82.8005 0 76.8449 0C74.4386 0 72.1909 0.782047 70.5065 2.20395C68.6471 3.77352 67.6189 5.97747 67.6189 8.41111C67.6189 10.0299 68.9315 11.3424 70.5502 11.3424C72.169 11.3424 73.4815 10.0299 73.4815 8.41111C73.4815 7.71657 73.7495 7.1314 74.2855 6.68295C74.9144 6.15247 75.8277 5.86262 76.8504 5.86262C79.5739 5.86262 81.7942 8.07751 81.7942 10.8065C81.7942 12.655 81.0778 14.3886 79.7707 15.6956C78.4637 17.0027 76.7301 17.7191 74.8871 17.7191C74.816 17.7191 74.7449 17.7191 74.6738 17.7301C56.5226 18.1785 41.8934 33.0866 41.8934 51.3417C41.8934 60.2177 45.3552 68.3006 50.9936 74.3164C46.3833 76.5422 42.2707 79.7032 38.9183 83.6353C34.4448 88.88 31.5354 95.2676 30.5072 102.098C29.8728 106.304 31.1033 110.564 33.876 113.791C34.4393 114.447 35.0573 115.038 35.7136 115.574C32.0987 117.674 29.572 121.223 28.7791 125.324C27.9806 129.437 29.0033 133.692 31.5846 136.99L37.8574 145.007C40.3895 148.244 44.245 149.989 48.1498 149.989C50.3647 149.989 52.6014 149.426 54.6249 148.261C60.2086 145.034 62.604 138.094 60.1922 132.117L56.3859 122.678C56.1343 122.049 55.8335 121.442 55.4945 120.862H76.9816C78.6004 120.862 79.9129 119.549 79.9129 117.931C79.9129 116.312 78.6004 114.999 76.9816 114.999H49.9272V108.825C49.9272 108.032 50.5725 107.381 51.3709 107.381H99.6719C100.465 107.381 101.116 108.026 101.116 108.825V115.404C98.2063 116.995 95.9148 119.555 94.657 122.678L90.8507 132.117C88.4389 138.094 90.8343 145.04 96.418 148.261C98.4414 149.426 100.673 149.989 102.893 149.989C106.798 149.989 110.648 148.244 113.186 145.007L119.458 136.99C122.04 133.692 123.062 129.437 122.264 125.324H122.242V125.319ZM75.4996 23.5763C90.8069 23.5763 103.265 36.0289 103.265 51.3417C103.265 66.6545 90.8124 79.1071 75.4996 79.1071C60.1867 79.1071 47.7341 66.6545 47.7341 51.3417C47.7341 36.0289 60.1922 23.5763 75.4996 23.5763ZM36.2823 102.968C37.9613 91.8222 45.3935 82.6072 55.8281 78.593C61.3626 82.6017 68.1603 84.9643 75.4996 84.9643C82.8388 84.9643 89.6366 82.5963 95.1711 78.593C105.606 82.6127 113.038 91.8222 114.717 102.968C115.094 105.483 114.361 108.032 112.699 109.962C111.228 111.669 109.171 112.73 106.951 112.954V108.819C106.951 105.844 105.157 103.279 102.598 102.142V98.5872C102.598 96.9684 101.285 95.6559 99.6665 95.6559C98.0477 95.6559 96.7352 96.9684 96.7352 98.5872V101.519H54.2749V98.5872C54.2749 96.9684 52.9624 95.6559 51.3436 95.6559C49.7248 95.6559 48.4123 96.9684 48.4123 98.5872V102.131C45.8419 103.263 44.0427 105.833 44.0427 108.819V112.954C41.8223 112.73 39.766 111.669 38.2949 109.962C36.6323 108.032 35.8995 105.483 36.2769 102.968H36.2823ZM51.6772 143.18C48.6037 144.952 44.6442 144.187 42.4567 141.392L36.1839 133.375C34.6471 131.411 34.0401 128.885 34.5159 126.435C34.9917 123.99 36.5011 121.868 38.6613 120.621C40.8215 119.374 43.4083 119.128 45.7654 119.938C48.1224 120.753 50.0092 122.541 50.9389 124.854L54.7452 134.293C56.0687 137.586 54.7562 141.403 51.6827 143.175L51.6772 143.18ZM114.815 133.375L108.542 141.392C106.355 144.187 102.39 144.952 99.3219 143.18C96.2484 141.408 94.9359 137.591 96.2594 134.299L100.066 124.854C100.995 122.541 102.882 120.753 105.239 119.938C106.153 119.626 107.099 119.467 108.045 119.467C109.538 119.467 111.02 119.856 112.343 120.621C114.504 121.868 116.013 123.985 116.489 126.435C116.964 128.879 116.352 131.411 114.815 133.375Z" fill="#3A3A3A"/>
    <path d="M90.6759 119.992C91.2228 119.445 91.5345 118.69 91.5345 117.919C91.5345 117.148 91.2228 116.394 90.6759 115.847C90.129 115.3 89.3743 114.988 88.6032 114.988C87.8321 114.988 87.0774 115.3 86.5305 115.847C85.9836 116.394 85.6719 117.148 85.6719 117.919C85.6719 118.69 85.9836 119.445 86.5305 119.992C87.0774 120.539 87.8321 120.851 88.6032 120.851C89.3743 120.851 90.129 120.539 90.6759 119.992Z" fill="#3A3A3A"/>
    <path d="M66.9898 65.4623C69.0789 68.0436 72.1798 69.5202 75.4994 69.5202C78.819 69.5202 81.9143 68.0381 84.0089 65.4623C85.0261 64.2045 84.8347 62.3615 83.5769 61.3443C82.319 60.327 80.476 60.5185 79.4588 61.7763C78.4854 62.9794 77.0416 63.6685 75.5048 63.6685C73.9681 63.6685 72.5243 62.9794 71.5508 61.7763C70.5336 60.5185 68.6852 60.327 67.4328 61.3443C66.175 62.3615 65.9835 64.2099 67.0008 65.4623H66.9898Z" fill="#3A3A3A"/>
    <path d="M62.6026 53.4088C62.9745 53.0369 63.5816 53.0369 63.9589 53.4088C64.5331 53.9831 65.2824 54.2674 66.0316 54.2674C66.7809 54.2674 67.5301 53.9831 68.1043 53.4088C69.2473 52.2658 69.2473 50.4119 68.1043 49.2634C65.4465 46.6056 61.1206 46.6056 58.4627 49.2634C57.3197 50.4064 57.3197 52.2604 58.4627 53.4088C59.6057 54.5518 61.4597 54.5518 62.6081 53.4088H62.6026Z" fill="#3A3A3A"/>
    <path d="M84.9768 54.2674C85.726 54.2674 86.4753 53.9831 87.0495 53.4088C87.4214 53.0369 88.0284 53.0369 88.4003 53.4088C89.5433 54.5518 91.3973 54.5518 92.5457 53.4088C93.6887 52.2658 93.6887 50.4119 92.5457 49.2634C89.8879 46.6056 85.562 46.6056 82.9041 49.2634C81.7611 50.4064 81.7611 52.2604 82.9041 53.4088C83.4783 53.9831 84.2276 54.2674 84.9768 54.2674Z" fill="#3A3A3A"/>
  </g>
</svg>