<svg width="17" height="19" viewBox="0 0 17 19" fill="none" xmlns="http://www.w3.org/2000/svg">
<g id="Layer_1" clip-path="url(#clip0_3532_6819)">
<path id="Vector" d="M14.4707 9.75488V13.4449" stroke="#222222" stroke-width="0.95" stroke-linecap="round" stroke-linejoin="round"/>
<path id="Vector_2" d="M2.43945 9.41488V9.22488C2.43945 5.92488 5.13945 3.25488 8.46945 3.25488C11.7995 3.25488 14.4995 5.92488 14.4995 9.22488V9.75488" stroke="#222222" stroke-width="0.95" stroke-linecap="round" stroke-linejoin="round"/>
<path id="Vector_3" d="M14.4708 13.4551H14.6608C15.1708 13.4551 15.5908 13.8751 15.5908 14.3851C15.5908 14.8951 15.1708 15.3151 14.6608 15.3151H2.23078C1.72078 15.3151 1.30078 14.8951 1.30078 14.3851C1.30078 13.8751 1.72078 13.4551 2.23078 13.4551H14.6508" stroke="#222222" stroke-width="0.95" stroke-linecap="round" stroke-linejoin="round"/>
<path id="Vector_4" d="M10.7595 15.4951C10.7595 16.8251 9.67945 17.9051 8.34945 17.9051C7.01945 17.9051 5.93945 16.8251 5.93945 15.4951H10.7595Z" stroke="#222222" stroke-width="0.95" stroke-miterlimit="10"/>
<path id="Vector_5" d="M14.4707 9.75488V13.4449" stroke="#222222" stroke-width="0.95" stroke-linecap="round" stroke-linejoin="round"/>
<path id="Vector_6" d="M14.4897 9.75488V9.22488C14.4897 5.92488 11.7897 3.25488 8.45969 3.25488C5.12969 3.25488 2.42969 5.92488 2.42969 9.22488V11.4449" stroke="#222222" stroke-width="0.95" stroke-linecap="round" stroke-linejoin="round"/>
<path id="Vector_7" d="M14.4708 13.4551H14.6608C15.1708 13.4551 15.5908 13.8751 15.5908 14.3851C15.5908 14.8951 15.1708 15.3151 14.6608 15.3151H2.23078C1.72078 15.3151 1.30078 14.8951 1.30078 14.3851C1.30078 13.8751 1.72078 13.4551 2.23078 13.4551H14.6508" stroke="#222222" stroke-width="0.95" stroke-linecap="round" stroke-linejoin="round"/>
<path id="Vector_8" d="M10.7595 15.4951C10.7595 16.8251 9.67945 17.9051 8.34945 17.9051C7.01945 17.9051 5.93945 16.8251 5.93945 15.4951H10.7595Z" stroke="#222222" stroke-width="0.95" stroke-miterlimit="10"/>
<path id="Vector_9" d="M8.45961 2.81521C8.93457 2.81521 9.31961 2.43018 9.31961 1.95521C9.31961 1.48025 8.93457 1.09521 8.45961 1.09521C7.98464 1.09521 7.59961 1.48025 7.59961 1.95521C7.59961 2.43018 7.98464 2.81521 8.45961 2.81521Z" stroke="#222222" stroke-width="0.95" stroke-linecap="round" stroke-linejoin="round"/>
</g>
<defs>
<clipPath id="clip0_3532_6819">
<rect width="15.22" height="17.75" fill="white" transform="translate(0.830078 0.625)"/>
</clipPath>
</defs>
</svg>
