<svg xmlns="http://www.w3.org/2000/svg" width="84" height="20" viewBox="0 0 84 20" fill="none">
  <path d="M53.3354 14.1074H47.5332V19.9995H53.3354V14.1074Z" fill="#ED8573"/>
  <path d="M45.2123 14.1074H39.4102V19.9995H45.2123V14.1074Z" fill="#F0975E"/>
  <path d="M53.3354 5.8916H47.5332V11.7837H53.3354V5.8916Z" fill="#F0975E"/>
  <path d="M45.2123 5.8916H39.4102V11.7837H45.2123V5.8916Z" fill="#F0975E"/>
  <path fill-rule="evenodd" clip-rule="evenodd" d="M39.4096 0H37.0906V3.57312H33.6074V5.8921H37.0906V11.7842H33.6074V14.1032H37.0906V19.9953H39.4096V14.1079H45.2118V20H47.5308V14.1079H53.3329V11.7889H47.5308V5.8921H53.3329V3.57312H47.5308V0H45.2118V3.57312H39.4096V0ZM45.2118 11.7842V5.8921H39.4096V11.7842H45.2118Z" fill="#27181D"/>
  <path d="M2.73072 19.9097L0 8.48047H2.36157L4.08424 16.3319L6.17605 8.48047H8.92097L10.9229 16.4644L12.6787 8.48047H15.0024L12.2291 19.9097H9.7823L7.50118 11.3626L5.22953 19.9097H2.73072Z" fill="#27181D"/>
  <path d="M30.0628 19.9097H27.5545L26.5559 17.3115H21.9842L21.0425 19.9097H18.5957L23.0491 8.48047H25.4864L30.0628 19.9097ZM25.8129 15.3853L24.237 11.1449L22.6941 15.3853H25.8129Z" fill="#27181D"/>
  <path d="M61.0801 19.9093V8.57471H63.3896V17.9831H69.1255V19.9093H61.0801Z" fill="#27181D"/>
  <path d="M74.6562 19.9097V8.48047H83.1276V10.4114H76.961V12.9433H82.7017V14.8695H76.961V17.9835H83.3453V19.9097H74.6562Z" fill="#27181D"/>
</svg>