<svg xmlns="http://www.w3.org/2000/svg" width="84" height="21" viewBox="0 0 84 21" fill="none">
  <path d="M53.3354 14.6074H47.5332V20.4995H53.3354V14.6074Z" fill="#ED8573"/>
  <path d="M45.2104 14.6074H39.4082V20.4995H45.2104V14.6074Z" fill="#F0975E"/>
  <path d="M53.3354 6.3916H47.5332V12.2837H53.3354V6.3916Z" fill="#F0975E"/>
  <path d="M45.2104 6.3916H39.4082V12.2837H45.2104V6.3916Z" fill="#F0975E"/>
  <path fill-rule="evenodd" clip-rule="evenodd" d="M39.4076 0.5H37.0887V4.07312H33.6055V6.3921H37.0887V12.2842H33.6055V14.6032H37.0887V20.4953H39.4076V14.6079H45.2098V20.5H47.5288V14.6079H53.331V12.2889H47.5288V6.3921H53.331V4.07312H47.5288V0.5H45.2098V4.07312H39.4076V0.5ZM45.2098 12.2842V6.3921H39.4076V12.2842H45.2098Z" fill="white"/>
  <path d="M2.73072 20.4097L0 8.98047H2.36157L4.08424 16.8319L6.17605 8.98047H8.92097L10.9229 16.9644L12.6787 8.98047H15.0024L12.2291 20.4097H9.7823L7.50118 11.8626L5.22953 20.4097H2.73072Z" fill="white"/>
  <path d="M30.0609 20.4097H27.5526L26.554 17.8115H21.9823L21.0405 20.4097H18.5938L23.0471 8.98047H25.4844L30.0609 20.4097ZM25.811 15.8853L24.235 11.6449L22.6922 15.8853H25.811Z" fill="white"/>
  <path d="M61.0762 20.4098V9.0752H63.3857V18.4836H69.1216V20.4098H61.0762Z" fill="white"/>
  <path d="M74.6543 20.4097V8.98047H83.1257V10.9114H76.9591V13.4433H82.6997V15.3695H76.9591V18.4835H83.3434V20.4097H74.6543Z" fill="white"/>
</svg>