<svg width="35" height="36" viewBox="0 0 35 36" fill="none" xmlns="http://www.w3.org/2000/svg">
<path d="M10.0915 27.4348C9.53208 27.9942 8.62508 27.9942 8.06566 27.4348C7.50624 26.8754 7.50623 25.9684 8.06566 25.409L15.4746 18L8.06565 10.5911C7.50623 10.0316 7.50624 9.12465 8.06566 8.56523C8.62508 8.00581 9.53208 8.00581 10.0915 8.56523L17.5005 15.9742L24.9094 8.56523C25.4688 8.00581 26.3758 8.00581 26.9353 8.56523C27.4947 9.12465 27.4947 10.0317 26.9352 10.5911L19.5263 18L26.9353 25.409C27.4947 25.9684 27.4947 26.8754 26.9352 27.4348C26.3758 27.9942 25.4688 27.9942 24.9094 27.4348L17.5005 20.0259L10.0915 27.4348Z" fill="#373737"/>
</svg>
