<svg width="54" height="54" viewBox="0 0 54 54" fill="none" xmlns="http://www.w3.org/2000/svg">
<path d="M23.268 32.792V13.748C23.268 13.172 23.364 12.668 23.556 12.236C23.772 11.78 24.048 11.408 24.384 11.12C24.72 10.808 25.104 10.58 25.536 10.436C25.992 10.268 26.46 10.184 26.94 10.184C27.396 10.184 27.84 10.268 28.272 10.436C28.728 10.58 29.124 10.808 29.46 11.12C29.82 11.408 30.096 11.78 30.288 12.236C30.504 12.668 30.612 13.172 30.612 13.748V32.792H23.268ZM23.088 38.12C23.088 36.992 23.424 36.104 24.096 35.456C24.768 34.808 25.716 34.484 26.94 34.484C28.164 34.484 29.112 34.82 29.784 35.492C30.456 36.14 30.792 37.016 30.792 38.12C30.792 39.224 30.456 40.112 29.784 40.784C29.112 41.432 28.164 41.756 26.94 41.756C25.716 41.756 24.768 41.432 24.096 40.784C23.424 40.136 23.088 39.248 23.088 38.12Z" fill="#F0745F"/>
<circle cx="27" cy="27" r="26.5" stroke="#F0745F"/>
</svg>
