<svg width="229" height="232" viewBox="0 0 229 232" fill="none" xmlns="http://www.w3.org/2000/svg">
<path d="M43.2656 43.3969H217.043V185.198C217.043 189.761 216.145 194.279 214.398 198.494C212.652 202.709 210.093 206.539 206.867 209.764C203.64 212.99 199.81 215.548 195.595 217.293C191.38 219.037 186.863 219.934 182.301 219.932H43.2656V43.3969Z" fill="#E79854"/>
<path d="M150.197 219.932H182.335C191.542 219.928 200.371 216.266 206.88 209.753C213.388 203.239 217.045 194.407 217.045 185.198V147.843H150.197V219.932Z" fill="#E3836C"/>
<path fill-rule="evenodd" clip-rule="evenodd" d="M54.2392 9.9181e-06C50.6856 9.9181e-06 47.2776 1.41198 44.7648 3.92529C42.2521 6.4386 40.8404 9.84739 40.8404 13.4017V27.8945C40.8469 29.6627 40.5034 31.4146 39.8299 33.0495C39.1564 34.6843 38.1661 36.1696 36.9161 37.4199C35.666 38.6702 34.181 39.6607 32.5466 40.3344C30.9121 41.0081 29.1605 41.3516 27.3927 41.3451H13.9288C10.3836 41.3407 6.98125 42.7419 4.46683 45.2416C1.9524 47.7413 0.53091 51.1358 0.513682 54.6817C0.513682 58.2361 1.92534 61.6448 4.43811 64.1582C6.95087 66.6715 10.3589 68.0834 13.9125 68.0834H27.3765C30.9272 68.0878 34.3311 69.5016 36.8403 72.0145C39.3496 74.5273 40.759 77.9336 40.759 81.4852V122.765C40.7611 124.524 40.4166 126.267 39.745 127.893C39.0734 129.518 38.088 130.996 36.8451 132.241C35.6022 133.485 34.1262 134.473 32.5015 135.146C30.8768 135.82 29.1352 136.167 27.3765 136.167H13.9288C12.1665 136.165 10.4211 136.51 8.79251 137.184C7.16395 137.857 5.68423 138.846 4.4381 140.092C3.19196 141.339 2.2039 142.819 1.53048 144.447C0.857069 146.076 0.511539 147.822 0.513682 149.585C0.51799 153.138 1.93103 156.544 4.44287 159.057C6.9547 161.569 10.3602 162.982 13.9125 162.987H27.3765C29.1352 162.987 30.8768 163.333 32.5015 164.007C34.1262 164.681 35.6022 165.668 36.8451 166.913C38.088 168.158 39.0734 169.635 39.745 171.261C40.4166 172.887 40.7611 174.629 40.759 176.388V217.668C40.759 219.435 41.1082 221.184 41.7867 222.816C42.4651 224.447 43.4593 225.928 44.7122 227.174C45.965 228.419 47.4517 229.405 49.0867 230.073C50.7217 230.742 52.4728 231.081 54.2392 231.07C55.9994 231.072 57.7427 230.727 59.3693 230.054C60.9959 229.382 62.4738 228.394 63.7184 227.15C64.963 225.905 65.9499 224.426 66.6225 222.799C67.2951 221.173 67.6402 219.429 67.6381 217.668V176.502C67.6381 174.742 67.9846 173 68.658 171.374C69.3313 169.748 70.3183 168.27 71.5625 167.026C72.8067 165.781 74.2838 164.794 75.9094 164.121C77.535 163.447 79.2773 163.101 81.0369 163.101H121.217C122.977 163.098 124.721 163.444 126.347 164.116C127.974 164.789 129.452 165.776 130.696 167.021C131.941 168.266 132.928 169.744 133.6 171.371C134.273 172.998 134.618 174.742 134.616 176.502V217.799C134.616 221.353 136.028 224.762 138.54 227.275C141.053 229.788 144.461 231.2 148.015 231.2C151.567 231.196 154.973 229.783 157.484 227.27C159.996 224.758 161.409 221.352 161.414 217.799V176.502C161.411 174.742 161.757 172.998 162.429 171.371C163.102 169.744 164.089 168.266 165.333 167.021C166.578 165.776 168.056 164.789 169.682 164.116C171.309 163.444 173.052 163.098 174.812 163.101H215.058C216.821 163.098 218.567 162.748 220.195 162.07C221.823 161.391 223.301 160.398 224.545 159.147C225.788 157.895 226.772 156.411 227.441 154.779C228.109 153.146 228.449 151.398 228.44 149.634C228.436 146.081 227.023 142.674 224.511 140.162C221.999 137.65 218.594 136.236 215.041 136.232H174.812C173.047 136.234 171.298 135.887 169.667 135.21C168.036 134.533 166.556 133.54 165.31 132.289C164.065 131.037 163.079 129.551 162.41 127.916C161.742 126.282 161.403 124.531 161.414 122.765V81.4852C161.414 77.9308 162.825 74.522 165.338 72.0087C167.851 69.4954 171.259 68.0834 174.812 68.0834H215.058C218.608 68.0791 222.012 66.6653 224.522 64.1524C227.031 61.6396 228.44 58.2332 228.44 54.6817C228.423 51.1415 227.006 47.7518 224.499 45.2531C221.991 42.7543 218.597 41.3494 215.058 41.3451H174.812C171.259 41.3451 167.851 39.9331 165.338 37.4198C162.825 34.9065 161.414 31.4977 161.414 27.9434V13.4506C161.42 11.6866 161.078 9.93859 160.408 8.30697C159.737 6.67536 158.751 5.19219 157.506 3.94254C156.262 2.6929 154.782 1.70136 153.154 1.02481C151.525 0.348256 149.778 -1.8019e-06 148.015 9.9181e-06C146.255 -0.00213317 144.511 0.34305 142.885 1.01579C141.258 1.68853 139.78 2.67562 138.536 3.92051C137.291 5.1654 136.304 6.64365 135.631 8.27059C134.959 9.89753 134.614 11.6412 134.616 13.4017V27.8945C134.622 29.6586 134.281 31.4065 133.61 33.0381C132.94 34.6698 131.954 36.1529 130.709 37.4026C129.464 38.6522 127.985 39.6437 126.356 40.3203C124.727 40.9968 122.981 41.3451 121.217 41.3451H80.9717C77.4195 41.3408 74.0139 39.9274 71.5021 37.4151C68.9903 34.9027 67.5772 31.4964 67.5729 27.9434V13.4506C67.5815 11.6914 67.2433 9.94782 66.5777 8.31948C65.912 6.69114 64.932 5.21001 63.6936 3.96079C62.4553 2.71157 60.9828 1.71876 59.3606 1.03914C57.7383 0.359517 55.998 0.00640945 54.2392 9.9181e-06ZM134.616 122.765V81.4852C134.616 77.9308 133.204 74.522 130.691 72.0087C128.179 69.4954 124.771 68.0834 121.217 68.0834H80.9717C77.4195 68.0877 74.0139 69.5011 71.5021 72.0135C68.9903 74.5259 67.5772 77.9321 67.5729 81.4852V122.765C67.5729 126.319 68.9846 129.728 71.4974 132.242C74.0101 134.755 77.4182 136.167 80.9717 136.167H121.217C122.977 136.169 124.721 135.824 126.347 135.151C127.974 134.478 129.452 133.491 130.696 132.246C131.941 131.001 132.928 129.523 133.6 127.896C134.273 126.269 134.618 124.526 134.616 122.765Z" fill="url(#paint0_linear_3860_6766)"/>
<g style="mix-blend-mode:multiply">
<g style="mix-blend-mode:multiply">
<path d="M161.414 27.8945V38.0883C161.401 38.5113 161.473 38.9326 161.625 39.3272C161.778 39.7218 162.009 40.0817 162.303 40.3855C162.598 40.6893 162.951 40.9308 163.34 41.0956C163.73 41.2604 164.149 41.3453 164.572 41.3451H174.601C171.073 41.2978 167.707 39.8573 165.236 37.3376C162.766 34.8179 161.392 31.4235 161.414 27.8945Z" fill="#BC6A31"/>
</g>
<g style="mix-blend-mode:multiply">
<path d="M141.485 13.8414C141.49 11.2011 142.541 8.67045 144.409 6.80502C146.277 4.93959 148.809 3.89186 151.449 3.89186C154.091 3.89186 156.626 4.94183 158.494 6.81078C160.363 8.67973 161.413 11.2146 161.413 13.8577V13.6623C161.431 11.9023 161.102 10.156 160.446 8.52311C159.789 6.89018 158.817 5.40258 157.586 4.14526C156.355 2.88795 154.888 1.88552 153.269 1.19523C151.65 0.504935 149.912 0.140291 148.152 0.122114C146.393 0.103937 144.647 0.432584 143.014 1.08929C141.382 1.746 139.894 2.7179 138.637 3.94952C137.38 5.18113 136.378 6.64833 135.688 8.26735C134.998 9.88637 134.633 11.6255 134.615 13.3854V27.8782C134.641 31.41 133.269 34.8086 130.798 37.3319C128.327 39.8551 124.959 41.2979 121.428 41.3451H138.294C139.144 41.3453 139.96 41.0134 140.568 40.4201C141.177 39.8269 141.529 39.0193 141.55 38.1697L141.485 13.8414Z" fill="#BC6A31"/>
</g>
<g style="mix-blend-mode:multiply">
<path d="M224.761 51.832C224.515 54.4301 223.296 56.839 221.349 58.5756C219.401 60.3122 216.869 61.248 214.26 61.1953H164.572C163.735 61.1953 162.931 61.5281 162.339 62.1206C161.747 62.713 161.414 63.5166 161.414 64.3544V81.4852C161.414 77.9308 162.826 74.522 165.338 72.0087C167.851 69.4954 171.259 68.0834 174.813 68.0834H214.472C217.882 68.154 221.197 66.9579 223.777 64.7263C226.357 62.4948 228.019 59.386 228.441 56.0007C228.618 54.1433 228.405 52.2693 227.815 50.4991C227.225 48.7289 226.272 47.1016 225.016 45.7216C223.761 44.3416 222.231 43.2394 220.524 42.4857C218.818 41.732 216.972 41.3435 215.107 41.3451C216.435 41.3823 217.742 41.6851 218.951 42.2358C220.16 42.7864 221.246 43.5737 222.146 44.5511C223.046 45.5286 223.741 46.6764 224.19 47.9269C224.639 49.1774 224.834 50.5052 224.761 51.832Z" fill="#BC6A31"/>
</g>
<g style="mix-blend-mode:multiply">
<path d="M27.3923 41.3451H27.6039H13.8307C13.1078 41.3521 12.3876 41.4339 11.6816 41.5894C12.4231 41.4502 13.1743 41.3685 13.9283 41.3451H27.3923Z" fill="#BC6A31"/>
</g>
<g style="mix-blend-mode:multiply">
<path d="M67.5723 216.822C67.7039 216.173 67.7694 215.513 67.7676 214.851V174.467C67.6534 175.118 67.5881 175.776 67.5723 176.437V216.822Z" fill="#BC6A31"/>
</g>
<g style="mix-blend-mode:multiply">
<path d="M67.7669 174.467C68.2387 171.3 69.8307 168.408 72.2537 166.316C74.6767 164.225 77.7697 163.072 80.9704 163.068H121.216C122.979 163.066 124.725 163.412 126.353 164.087C127.982 164.762 129.461 165.752 130.706 167C131.951 168.248 132.938 169.73 133.608 171.361C134.279 172.992 134.621 174.739 134.615 176.502V217.212C134.556 220.615 135.758 223.919 137.987 226.489C140.217 229.059 143.319 230.714 146.695 231.135C148.551 231.31 150.424 231.095 152.192 230.504C153.961 229.913 155.587 228.959 156.966 227.704C158.345 226.449 159.447 224.919 160.202 223.214C160.956 221.508 161.346 219.664 161.347 217.798V214.916C161.347 217.559 160.297 220.094 158.429 221.963C156.56 223.832 154.026 224.882 151.383 224.882C148.741 224.882 146.207 223.832 144.338 221.963C142.47 220.094 141.42 217.559 141.42 214.916V159.355C141.42 158.491 141.077 157.663 140.466 157.052C139.855 156.442 139.027 156.098 138.164 156.098H70.9905C70.1269 156.098 69.2987 156.442 68.6881 157.052C68.0774 157.663 67.7344 158.491 67.7344 159.355L67.7669 174.467Z" fill="#BC6A31"/>
</g>
<g style="mix-blend-mode:multiply">
<path d="M161.412 122.765V132.991C161.412 133.855 161.756 134.684 162.366 135.294C162.977 135.905 163.805 136.248 164.669 136.248H174.714C172.955 136.238 171.215 135.88 169.595 135.197C167.974 134.513 166.504 133.517 165.269 132.264C164.033 131.012 163.057 129.529 162.395 127.899C161.734 126.269 161.4 124.524 161.412 122.765Z" fill="#BC6A31"/>
</g>
<g style="mix-blend-mode:multiply">
<path d="M67.7678 122.765V132.991C67.7678 133.855 68.1109 134.684 68.7215 135.294C69.3321 135.905 70.1604 136.248 71.0239 136.248H81.1015C79.3406 136.24 77.5986 135.884 75.9752 135.202C74.3517 134.519 72.8787 133.523 71.6404 132.271C70.402 131.019 69.4226 129.535 68.7581 127.904C68.0936 126.273 67.7571 124.526 67.7678 122.765Z" fill="#BC6A31"/>
</g>
<g style="mix-blend-mode:multiply">
<path d="M67.7676 80.1335C67.7676 74.1572 74.0356 68.0833 80.792 68.0833H118.074C125.466 68.0833 131.603 77.0558 131.603 84.3673V125.745C131.596 127.769 131.13 129.764 130.238 131.581C129.347 133.398 128.055 134.988 126.459 136.232H138.213C139.077 136.232 139.905 135.889 140.516 135.278C141.126 134.667 141.469 133.839 141.469 132.975V64.4194C141.469 63.5556 141.126 62.7273 140.516 62.1165C139.905 61.5057 139.077 61.1626 138.213 61.1626H70.926C70.0883 61.1626 69.285 61.4954 68.6927 62.0879C68.1003 62.6803 67.7676 63.4839 67.7676 64.3217V80.1335Z" fill="#BC6A31"/>
</g>
<g style="mix-blend-mode:multiply">
<path d="M215.056 136.232H214.877C216.225 136.243 217.558 136.528 218.794 137.069C220.029 137.61 221.143 138.395 222.066 139.378C222.99 140.362 223.705 141.522 224.168 142.789C224.63 144.056 224.831 145.404 224.759 146.752C224.524 149.361 223.308 151.785 221.356 153.532C219.403 155.279 216.861 156.22 214.242 156.164H164.586C163.737 156.163 162.92 156.495 162.312 157.089C161.704 157.682 161.351 158.49 161.33 159.339V176.502C161.328 174.742 161.673 172.998 162.346 171.371C163.018 169.744 164.005 168.266 165.25 167.021C166.494 165.776 167.972 164.789 169.599 164.116C171.225 163.444 172.969 163.099 174.729 163.101H214.974C217.119 163.092 219.231 162.571 221.133 161.58C223.036 160.589 224.674 159.157 225.91 157.404C227.147 155.651 227.946 153.627 228.241 151.502C228.537 149.377 228.319 147.212 227.608 145.188C226.713 142.571 225.021 140.3 222.77 138.693C220.519 137.087 217.821 136.226 215.056 136.232Z" fill="#BC6A31"/>
</g>
<g style="mix-blend-mode:multiply">
<path d="M80.7587 41.3451C77.588 41.3018 74.5362 40.1311 72.1498 38.0425C69.7634 35.9539 68.1981 33.0839 67.7344 29.9463V38.0883C67.7344 38.952 68.0774 39.7804 68.6881 40.3912C69.2987 41.002 70.1269 41.3451 70.9905 41.3451H80.7587Z" fill="#BC6A31"/>
</g>
<g style="mix-blend-mode:multiply">
<path d="M67.5736 27.8946C67.5887 28.55 67.654 29.2032 67.769 29.8486V13.8415C67.754 12.9091 67.6116 11.9832 67.3457 11.0895C67.4885 11.8522 67.5647 12.6259 67.5736 13.4018V27.8946Z" fill="#BC6A31"/>
</g>
<g style="mix-blend-mode:multiply">
<path d="M56.5179 224.736C54.0683 224.354 51.8398 223.098 50.2445 221.2C48.6492 219.302 47.7952 216.891 47.8404 214.411V159.388C47.8404 158.524 47.4974 157.696 46.8867 157.085C46.2761 156.474 45.4479 156.131 44.5843 156.131H14.4003C11.7787 156.187 9.23386 155.244 7.28116 153.493C5.32846 151.743 4.1138 149.315 3.88314 146.703C3.81015 145.351 4.01332 143.998 4.48023 142.727C4.94714 141.457 5.66801 140.294 6.59886 139.312C7.52971 138.329 8.651 137.546 9.89434 137.011C11.1377 136.476 12.477 136.2 13.8305 136.199H44.6331C45.4967 136.199 46.3249 135.856 46.9356 135.245C47.5462 134.635 47.8892 133.806 47.8892 132.943V64.4032C47.8892 63.5394 47.5462 62.711 46.9356 62.1003C46.3249 61.4895 45.4967 61.1464 44.6331 61.1464H14.2538C11.7957 61.1946 9.40252 60.3553 7.5128 58.7822C5.62309 57.2091 4.36339 55.0075 3.96454 52.581C3.62758 50.1035 4.23398 47.5899 5.66344 45.5388C7.09289 43.4876 9.24096 42.0488 11.6815 41.5079C8.45555 42.0493 5.53907 43.7524 3.48181 46.296C1.42454 48.8397 0.368618 52.0482 0.513083 55.3167C0.774421 58.8281 2.36851 62.1065 4.96868 64.4802C7.56885 66.8539 10.9782 68.143 14.498 68.0834H27.3596C30.9103 68.0877 34.3142 69.5016 36.8235 72.0144C39.3327 74.5272 40.7421 77.9336 40.7421 81.4851V122.765C40.7443 124.524 40.3997 126.267 39.7281 127.892C39.0565 129.518 38.0711 130.996 36.8282 132.241C35.5853 133.485 34.1093 134.473 32.4846 135.146C30.8599 135.82 29.1184 136.167 27.3596 136.167H14.5143C11.1125 136.108 7.80932 137.31 5.23977 139.54C2.67022 141.771 1.01575 144.873 0.594486 148.25C0.420022 150.106 0.634997 151.979 1.22566 153.748C1.81632 155.518 2.76966 157.144 4.0247 158.523C5.27973 159.903 6.80882 161.005 8.51414 161.76C10.2195 162.514 12.0635 162.904 13.9282 162.905H27.3921C29.1509 162.905 30.8925 163.252 32.5172 163.926C34.1419 164.599 35.6179 165.587 36.8608 166.831C38.1037 168.076 39.0891 169.554 39.7607 171.179C40.4322 172.805 40.7768 174.548 40.7747 176.307V217.587C40.7639 219.359 41.1047 221.116 41.7773 222.756C42.4499 224.395 43.441 225.885 44.6931 227.139C45.9453 228.393 47.4337 229.386 49.0722 230.061C50.7107 230.736 52.4667 231.079 54.2386 231.07C55.9988 231.072 57.7421 230.727 59.3687 230.054C60.9953 229.381 62.4732 228.394 63.7178 227.149C64.9624 225.905 65.9493 224.426 66.6219 222.799C67.2945 221.172 67.6396 219.429 67.6375 217.668V216.821C67.1424 219.31 65.7155 221.515 63.6485 222.987C61.5816 224.458 59.0308 225.083 56.5179 224.736Z" fill="#BC6A31"/>
</g>
<g style="mix-blend-mode:multiply">
<path d="M47.8401 14.2159C47.7987 11.7888 48.6232 9.42636 50.1657 7.55227C51.7082 5.67818 53.8678 4.4151 56.2571 3.98958C58.6531 3.61494 61.1034 4.13015 63.1458 5.43804C65.1881 6.74592 66.6815 8.75609 67.3441 11.0894C66.809 7.99607 65.2025 5.18976 62.8063 3.16221C60.4101 1.13466 57.3769 0.0152069 54.2384 0C50.6848 0 47.2767 1.41197 44.764 3.92528C42.2512 6.43859 40.8395 9.84737 40.8395 13.4017V27.8945C40.8612 31.4318 39.4804 34.8336 36.9996 37.3547C34.5187 39.8758 31.14 41.3107 27.6035 41.3451H44.6166C45.4802 41.3451 46.3084 41.002 46.919 40.3912C47.5296 39.7804 47.8727 38.952 47.8727 38.0883L47.8401 14.2159Z" fill="#BC6A31"/>
</g>
</g>
<path d="M92.5 101C104 98.5 130.4 92.2 144 87" stroke="#29151A" stroke-width="5" stroke-linecap="round"/>
<path d="M143.064 101.84C143.064 120.762 132.932 136.102 120.434 136.102C108.054 136.102 97.9965 121.052 97.8066 102.378C109.712 99.6674 129.282 94.8347 141.787 90.4672C142.614 94.0258 143.064 97.8534 143.064 101.84Z" fill="white"/>
<path d="M124.867 128.677C132.977 128.677 139.552 118.725 139.552 106.449C139.552 94.1734 132.977 84.2217 124.867 84.2217C116.756 84.2217 110.182 94.1734 110.182 106.449C110.182 118.725 116.756 128.677 124.867 128.677Z" fill="#29151A"/>
<path d="M140.387 85.6603C136.571 74.8973 129.067 67.5786 120.434 67.5786C108.975 67.5786 99.5049 80.4738 98.0098 97.2025C110.042 94.4352 128.64 89.7911 140.387 85.6603Z" fill="url(#paint1_linear_3860_6766)"/>
<path d="M205 101C193.5 98.5 167.1 92.2 153.5 87" stroke="#29151A" stroke-width="5" stroke-linecap="round"/>
<path d="M154.436 101.84C154.436 120.762 164.568 136.102 177.066 136.102C189.446 136.102 199.503 121.052 199.693 102.378C187.788 99.6674 168.218 94.8347 155.713 90.4672C154.886 94.0258 154.436 97.8534 154.436 101.84Z" fill="white"/>
<path d="M181.184 128.677C173.074 128.677 166.499 118.725 166.499 106.449C166.499 94.1734 173.074 84.2217 181.184 84.2217C189.294 84.2217 195.869 94.1734 195.869 106.449C195.869 118.725 189.294 128.677 181.184 128.677Z" fill="#29151A"/>
<path d="M157.113 85.6603C160.929 74.8973 168.433 67.5786 177.066 67.5786C188.525 67.5786 197.995 80.4738 199.49 97.2025C187.458 94.4352 168.86 89.7911 157.113 85.6603Z" fill="url(#paint2_linear_3860_6766)"/>
<defs>
<linearGradient id="paint0_linear_3860_6766" x1="17.1198" y1="199.56" x2="198.019" y2="18.7008" gradientUnits="userSpaceOnUse">
<stop stop-color="#7E372A"/>
<stop offset="0.46" stop-color="#7F392C"/>
<stop offset="0.65" stop-color="#834033"/>
<stop offset="0.78" stop-color="#8B4C3F"/>
<stop offset="0.89" stop-color="#955D4F"/>
<stop offset="0.99" stop-color="#A27465"/>
<stop offset="1" stop-color="#A47768"/>
</linearGradient>
<linearGradient id="paint1_linear_3860_6766" x1="94.5" y1="93.4999" x2="142" y2="80.9999" gradientUnits="userSpaceOnUse">
<stop stop-color="#BC604A"/>
<stop offset="0.661458" stop-color="#E3836C"/>
</linearGradient>
<linearGradient id="paint2_linear_3860_6766" x1="201.5" y1="80.9999" x2="155" y2="78.9999" gradientUnits="userSpaceOnUse">
<stop stop-color="#C66A54"/>
<stop offset="0.510417" stop-color="#E3836C"/>
</linearGradient>
</defs>
</svg>
