<svg width="281" height="285" viewBox="0 0 281 285" fill="none" xmlns="http://www.w3.org/2000/svg">
<g id="available-image_1" clip-path="url(#clip0_3860_1023)">
<g id="Group">
<g id="&#235;&#160;&#136;&#236;&#157;&#180;&#236;&#150;&#180; 1">
<g id="Group_2">
<path id="Vector" d="M94.9551 59.7531L250.634 101.467L216.534 228.729C215.437 232.823 213.545 236.662 210.967 240.026C208.389 243.39 205.176 246.213 201.51 248.333C197.844 250.453 193.797 251.83 189.602 252.384C185.406 252.938 181.143 252.658 177.057 251.561L52.5028 218.187L94.9551 59.7531Z" fill="#E79854"/>
<path id="Vector_2" d="M148.297 243.855L177.088 251.569C185.337 253.775 194.126 252.609 201.524 248.326C208.921 244.042 214.321 236.994 216.535 228.729L225.518 195.203L165.633 179.157L148.297 243.855Z" fill="#E3836C"/>
<path id="Vector_3" fill-rule="evenodd" clip-rule="evenodd" d="M115.222 23.4399C112.038 22.5868 108.646 23.036 105.79 24.6884C102.935 26.3408 100.85 29.0613 99.9957 32.2512L96.5105 45.2579C96.0911 46.8463 95.3621 48.3362 94.3656 49.6418C93.3691 50.9473 92.1248 52.0426 90.7043 52.8646C89.2838 53.6867 87.7152 54.2192 86.089 54.4314C84.4628 54.6437 82.811 54.5315 81.2289 54.1014L69.1672 50.8694C65.9924 50.0146 62.6074 50.4553 59.7538 52.0951C56.9001 53.735 54.8103 56.4402 53.9422 59.6184C53.0875 62.8083 53.5324 66.2064 55.1791 69.0652C56.8257 71.924 59.5393 74.0093 62.7228 74.8623L74.7844 78.0942C77.9643 78.9504 80.6737 81.0364 82.3173 83.8939C83.9609 86.7514 84.4044 90.1468 83.5504 93.3342L73.6236 130.381C73.2024 131.961 72.4748 133.442 71.4822 134.74C70.4895 136.038 69.2515 137.127 67.8387 137.946C66.4259 138.765 64.8662 139.296 63.2487 139.511C61.6312 139.726 59.9877 139.619 58.412 139.197L46.365 135.969C44.7867 135.544 43.14 135.435 41.5191 135.649C39.8982 135.862 38.3349 136.394 36.9188 137.213C35.5027 138.033 34.2617 139.124 33.2667 140.424C32.2717 141.724 31.5423 143.208 31.1204 144.791C30.2698 147.98 30.7165 151.377 32.3626 154.234C34.0087 157.092 36.7196 159.178 39.9009 160.035L51.9626 163.267C53.5382 163.689 55.0149 164.418 56.3084 165.413C57.6019 166.407 58.6867 167.648 59.5009 169.063C60.315 170.478 60.8425 172.041 61.0531 173.661C61.2638 175.282 61.1535 176.928 60.7285 178.506L50.8017 215.554C50.3768 217.139 50.269 218.793 50.4845 220.42C50.7 222.047 51.2345 223.615 52.0574 225.033C52.8802 226.452 53.9751 227.693 55.279 228.686C56.5829 229.679 58.0702 230.403 59.6552 230.817C61.2315 231.242 62.8762 231.35 64.4952 231.137C66.1142 230.924 67.6755 230.393 69.0899 229.574C70.5042 228.756 71.7438 227.666 72.7376 226.367C73.7314 225.069 74.4598 223.586 74.8813 222.006L84.7807 185.061C85.2039 183.481 85.9335 182.001 86.9277 180.703C87.9219 179.405 89.1613 178.316 90.5752 177.498C91.9891 176.68 93.5497 176.149 95.168 175.934C96.7863 175.72 98.4305 175.827 100.007 176.25L136.002 185.895C137.58 186.315 139.058 187.043 140.354 188.038C141.649 189.032 142.736 190.272 143.551 191.688C144.367 193.104 144.896 194.668 145.107 196.29C145.318 197.911 145.208 199.559 144.783 201.138L134.852 238.2C133.997 241.39 134.442 244.788 136.089 247.647C137.736 250.506 140.449 252.591 143.633 253.444C146.816 254.293 150.207 253.842 153.061 252.19C155.915 250.538 158 247.821 158.859 244.633L168.789 207.571C169.211 205.99 169.939 204.508 170.933 203.21C171.927 201.911 173.166 200.821 174.581 200.003C175.995 199.184 177.557 198.653 179.175 198.44C180.794 198.227 182.439 198.335 184.015 198.76L220.069 208.42C221.65 208.842 223.298 208.946 224.92 208.728C226.541 208.51 228.104 207.973 229.519 207.149C230.934 206.324 232.172 205.228 233.164 203.924C234.155 202.619 234.88 201.132 235.296 199.547C236.147 196.357 235.7 192.961 234.054 190.103C232.408 187.245 229.697 185.159 226.516 184.303L190.477 174.646C188.894 174.224 187.411 173.493 186.113 172.494C184.815 171.495 183.727 170.248 182.912 168.826C182.098 167.403 181.572 165.833 181.366 164.206C181.16 162.578 181.278 160.926 181.712 159.344L191.639 122.296C192.493 119.106 194.578 116.386 197.433 114.734C200.289 113.081 203.681 112.632 206.865 113.485L242.918 123.146C246.1 123.994 249.49 123.542 252.342 121.889C255.194 120.236 257.276 117.518 258.13 114.33C258.966 111.149 258.512 107.767 256.866 104.922C255.221 102.078 252.518 100.002 249.348 99.1488L213.295 89.4883C210.111 88.6353 207.398 86.55 205.751 83.6912C204.104 80.8324 203.659 77.4343 204.514 74.2444L207.999 61.2376C208.429 59.656 208.543 58.0052 208.335 56.38C208.127 54.7547 207.6 53.1869 206.786 51.7666C205.971 50.3463 204.884 49.1013 203.588 48.1032C202.291 47.105 200.81 46.3733 199.23 45.9499C197.654 45.5255 196.009 45.4168 194.39 45.6301C192.771 45.8434 191.21 46.3745 189.796 47.193C188.381 48.0115 187.142 49.1013 186.148 50.4C185.154 51.6986 184.426 53.1807 184.004 54.7612L180.519 67.768C180.101 69.3527 179.374 70.8394 178.381 72.1428C177.388 73.4461 176.148 74.5406 174.733 75.3633C173.317 76.186 171.753 76.7207 170.131 76.937C168.51 77.1532 166.861 77.0465 165.281 76.6231L129.228 66.9626C126.046 66.106 123.335 64.0201 121.689 61.1624C120.043 58.3047 119.597 54.9085 120.447 51.7187L123.932 38.7119C124.363 37.1352 124.479 35.4892 124.275 33.868C124.07 32.2469 123.548 30.6824 122.739 29.264C121.93 27.8456 120.85 26.6011 119.56 25.6018C118.27 24.6024 116.796 23.8678 115.222 23.4399ZM157.705 152.911L167.632 115.864C168.487 112.674 168.042 109.276 166.395 106.417C164.748 103.558 162.035 101.473 158.851 100.62L122.798 90.9593C119.614 90.1105 116.224 90.5614 113.369 92.2133C110.515 93.8651 108.43 96.5829 107.572 99.7706L97.6448 136.818C96.7901 140.008 97.235 143.406 98.8816 146.265C100.528 149.124 103.242 151.209 106.425 152.062L142.479 161.722C144.055 162.147 145.7 162.256 147.319 162.042C148.938 161.829 150.499 161.298 151.914 160.479C153.328 159.661 154.568 158.571 155.561 157.272C156.555 155.974 157.284 154.492 157.705 152.911Z" fill="url(#paint0_linear_3860_1023)"/>
<g id="Group_3" style="mix-blend-mode:multiply">
<g id="Vector_4" style="mix-blend-mode:multiply">
<path d="M204.527 74.2005L202.075 83.3491C201.962 83.7256 201.925 84.121 201.967 84.5118C202.009 84.9027 202.129 85.281 202.32 85.6244C202.511 85.9677 202.769 86.2691 203.078 86.5105C203.388 86.752 203.743 86.9287 204.122 87.0301L213.106 89.4374C209.957 88.5482 207.288 86.4473 205.68 83.593C204.073 80.7387 203.659 77.3624 204.527 74.2005Z" fill="#BC6A31"/>
</g>
<g id="Vector_5" style="mix-blend-mode:multiply">
<path d="M190.054 56.8049C190.693 54.4364 192.243 52.4177 194.366 51.1919C196.488 49.9662 199.008 49.6336 201.373 50.2673C203.74 50.9016 205.758 52.4522 206.982 54.5781C208.207 56.7039 208.538 59.2309 207.902 61.6029L207.949 61.4276C208.388 59.8524 208.514 58.2063 208.318 56.5832C208.123 54.9601 207.61 53.3918 206.809 51.9678C206.009 50.5439 204.936 49.2921 203.652 48.2841C202.368 47.276 200.898 46.5314 199.326 46.0927C197.754 45.654 196.111 45.5299 194.49 45.7273C192.87 45.9248 191.304 46.4401 189.881 47.2437C188.459 48.0472 187.208 49.1234 186.201 50.4108C185.193 51.6981 184.448 53.1714 184.009 54.7466L180.524 67.7533C179.698 70.9292 177.651 73.65 174.831 75.3214C172.011 76.9928 168.646 77.479 165.471 76.6739L180.581 80.7226C181.342 80.9268 182.153 80.8248 182.841 80.4384C183.529 80.052 184.039 79.4117 184.262 78.6544L190.054 56.8049Z" fill="#BC6A31"/>
</g>
<g id="Vector_6" style="mix-blend-mode:multiply">
<path d="M255.519 110.89C254.674 113.162 253.002 115.032 250.84 116.123C248.678 117.214 246.184 117.446 243.86 116.772L199.347 104.845C198.597 104.644 197.797 104.75 197.124 105.139C196.451 105.529 195.959 106.17 195.758 106.922L191.638 122.296C192.493 119.106 194.577 116.386 197.433 114.734C200.288 113.081 203.681 112.632 206.864 113.485L242.393 123.005C245.431 123.887 248.689 123.609 251.536 122.226C254.384 120.842 256.62 118.451 257.812 115.514C258.418 113.89 258.677 112.157 258.575 110.426C258.472 108.696 258.01 107.007 257.217 105.467C256.424 103.927 255.318 102.571 253.97 101.485C252.623 100.398 251.063 99.6069 249.392 99.1605C250.572 99.5127 251.671 100.098 252.621 100.883C253.572 101.667 254.356 102.634 254.927 103.728C255.498 104.821 255.845 106.018 255.946 107.248C256.048 108.478 255.903 109.716 255.519 110.89Z" fill="#BC6A31"/>
</g>
<g id="Vector_7" style="mix-blend-mode:multiply">
<path d="M81.2287 54.1013L81.4183 54.1521L69.0795 50.8459C68.4303 50.6787 67.7654 50.5793 67.0956 50.5493C67.7933 50.6024 68.4858 50.7094 69.167 50.8694L81.2287 54.1013Z" fill="#BC6A31"/>
</g>
<g id="Vector_8" style="mix-blend-mode:multiply">
<path d="M75.0257 221.23C75.2996 220.68 75.517 220.103 75.6745 219.509L85.386 183.265C85.1271 183.822 84.9102 184.398 84.7371 184.987L75.0257 221.23Z" fill="#BC6A31"/>
</g>
<g id="Vector_9" style="mix-blend-mode:multiply">
<path d="M85.3874 183.265C86.5715 180.537 88.6932 178.323 91.3668 177.028C94.0405 175.732 97.0885 175.44 99.9569 176.205L136.011 185.865C137.59 186.286 139.071 187.016 140.368 188.013C141.665 189.009 142.752 190.253 143.567 191.672C144.382 193.091 144.91 194.658 145.118 196.283C145.327 197.907 145.213 199.557 144.783 201.138L134.994 237.674C134.123 240.714 134.405 243.967 135.784 246.809C137.164 249.651 139.544 251.881 142.467 253.069C144.089 253.671 145.818 253.928 147.544 253.822C149.271 253.717 150.957 253.251 152.494 252.456C154.032 251.66 155.387 250.552 156.473 249.202C157.559 247.852 158.352 246.291 158.801 244.617L159.494 242.03C158.858 244.402 157.308 246.425 155.185 247.654C153.062 248.883 150.539 249.217 148.172 248.583C145.804 247.948 143.786 246.398 142.562 244.272C141.337 242.146 141.007 239.619 141.642 237.247L155.003 187.383C155.211 186.608 155.103 185.782 154.703 185.087C154.302 184.392 153.643 183.886 152.869 183.678L92.6924 167.554C91.9187 167.347 91.0943 167.456 90.4004 167.857C89.7064 168.259 89.1999 168.92 88.9922 169.695L85.3874 183.265Z" fill="#BC6A31"/>
</g>
<g id="Vector_10" style="mix-blend-mode:multiply">
<path d="M181.711 159.344L179.252 168.521C179.044 169.297 179.152 170.122 179.553 170.817C179.953 171.512 180.612 172.019 181.386 172.226L190.385 174.637C188.812 174.205 187.339 173.467 186.052 172.465C184.764 171.462 183.687 170.215 182.881 168.795C182.076 167.374 181.558 165.808 181.357 164.187C181.156 162.565 181.277 160.919 181.711 159.344Z" fill="#BC6A31"/>
</g>
<g id="Vector_11" style="mix-blend-mode:multiply">
<path d="M97.8205 136.865L95.3614 146.043C95.1536 146.818 95.2618 147.644 95.6619 148.338C96.0621 149.033 96.7215 149.54 97.4951 149.747L106.523 152.166C104.948 151.736 103.473 150.998 102.182 149.996C100.892 148.994 99.812 147.747 99.0038 146.326C98.1955 144.905 97.675 143.338 97.472 141.714C97.2689 140.091 97.3874 138.443 97.8205 136.865Z" fill="#BC6A31"/>
</g>
<g id="Vector_12" style="mix-blend-mode:multiply">
<path d="M108.071 98.6044C109.508 93.2409 116.584 89.2943 122.636 90.9162L156.036 99.8655C162.657 101.64 165.998 111.166 164.24 117.727L154.29 154.862C153.797 156.677 152.899 158.356 151.663 159.772C150.428 161.189 148.888 162.306 147.159 163.039L157.689 165.861C158.463 166.068 159.287 165.959 159.981 165.557C160.675 165.156 161.182 164.495 161.389 163.719L177.875 102.193C178.083 101.418 177.975 100.592 177.575 99.8973C177.174 99.2026 176.515 98.6959 175.741 98.4886L115.462 82.3368C114.712 82.1358 113.912 82.2416 113.239 82.6311C112.566 83.0207 112.075 83.6619 111.873 84.4139L108.071 98.6044Z" fill="#BC6A31"/>
</g>
<g id="Vector_13" style="mix-blend-mode:multiply">
<path d="M226.53 184.307L226.37 184.264C227.576 184.597 228.701 185.173 229.678 185.955C230.655 186.737 231.463 187.709 232.054 188.813C232.645 189.917 233.007 191.13 233.116 192.379C233.226 193.627 233.082 194.885 232.693 196.077C231.856 198.362 230.183 200.245 228.014 201.345C225.845 202.444 223.341 202.678 221.008 201.999L176.524 190.08C175.763 189.876 174.952 189.978 174.265 190.364C173.577 190.75 173.067 191.391 172.844 192.148L168.716 207.551C169.138 205.971 169.866 204.489 170.86 203.19C171.854 201.892 173.093 200.802 174.508 199.983C175.922 199.165 177.484 198.634 179.102 198.42C180.721 198.207 182.366 198.316 183.942 198.74L219.996 208.401C221.92 208.908 223.937 208.947 225.88 208.514C227.822 208.081 229.634 207.19 231.163 205.913C232.692 204.636 233.895 203.012 234.671 201.176C235.446 199.34 235.772 197.345 235.622 195.358C235.45 192.794 234.48 190.349 232.85 188.367C231.219 186.385 229.009 184.965 226.53 184.307Z" fill="#BC6A31"/>
</g>
<g id="Vector_14" style="mix-blend-mode:multiply">
<path d="M129.038 66.9117C126.208 66.1118 123.756 64.3285 122.12 61.8813C120.484 59.434 119.772 56.4825 120.111 53.5553L118.153 60.8625C117.946 61.6377 118.054 62.4634 118.454 63.1582C118.854 63.8529 119.514 64.3596 120.287 64.5669L129.038 66.9117Z" fill="#BC6A31"/>
</g>
<g id="Vector_15" style="mix-blend-mode:multiply">
<path d="M120.458 51.6749C120.314 52.2667 120.215 52.8687 120.163 53.4755L124.012 39.1096C124.223 38.2693 124.318 37.4041 124.295 36.5382C124.239 37.257 124.122 37.9697 123.943 38.6682L120.458 51.6749Z" fill="#BC6A31"/>
</g>
<g id="Vector_16" style="mix-blend-mode:multiply">
<path d="M63.2195 225.679C61.1168 224.749 59.4223 223.087 58.4496 221.001C57.4769 218.914 57.2918 216.545 57.9285 214.331L71.1603 164.949C71.368 164.174 71.2599 163.348 70.8598 162.653C70.4596 161.959 69.8002 161.452 69.0265 161.245L41.9862 153.999C39.6243 153.42 37.5712 151.963 36.2429 149.923C34.9145 147.883 34.4101 145.413 34.8317 143.013C35.0914 141.782 35.5987 140.617 36.3226 139.589C37.0464 138.56 37.9717 137.69 39.042 137.032C40.1122 136.373 41.305 135.94 42.5475 135.758C43.79 135.576 45.0562 135.65 46.2688 135.974L73.8633 143.368C74.637 143.576 75.4614 143.466 76.1553 143.065C76.8493 142.663 77.3558 142.002 77.5635 141.227L94.0455 79.7153C94.2532 78.9401 94.1451 78.1144 93.7449 77.4196C93.3448 76.7249 92.6854 76.2182 91.9117 76.0109L64.6964 68.7185C62.4827 68.1718 60.5406 66.8441 59.226 64.9786C57.9114 63.1132 57.3123 60.835 57.5386 58.5616C57.8325 56.2572 58.9802 54.1469 60.754 52.6492C62.5278 51.1515 64.7981 50.3759 67.1146 50.4762C64.0944 50.1878 61.0722 51.0161 58.6175 52.8051C56.1628 54.5941 54.4453 57.2202 53.7887 60.1883C53.1784 63.4023 53.8181 66.7273 55.5766 69.4817C57.3352 72.2361 60.0795 74.2115 63.247 75.0029L74.769 78.0902C77.9489 78.9464 80.6583 81.0324 82.3019 83.8899C83.9456 86.7474 84.389 90.1428 83.535 93.3302L73.6082 130.377C73.1871 131.957 72.4594 133.438 71.4668 134.736C70.4742 136.034 69.2361 137.123 67.8233 137.942C66.4105 138.761 64.8508 139.292 63.2333 139.507C61.6158 139.722 59.9723 139.615 58.3967 139.193L46.8892 136.109C43.8558 135.24 40.6077 135.526 37.7694 136.911C34.9311 138.296 32.703 140.682 31.5136 143.612C30.9107 145.236 30.6529 146.969 30.7567 148.698C30.8604 150.428 31.3233 152.116 32.1159 153.656C32.9085 155.195 34.0133 156.551 35.3596 157.638C36.7058 158.724 38.264 159.517 39.9343 159.965L51.9959 163.197C53.5715 163.619 55.0483 164.349 56.3418 165.343C57.6353 166.338 58.7201 167.578 59.5342 168.994C60.3484 170.409 60.8758 171.972 61.0865 173.592C61.2971 175.213 61.1868 176.859 60.7619 178.437L50.8351 215.485C50.3992 217.073 50.282 218.731 50.4903 220.364C50.6985 221.997 51.2281 223.572 52.0483 224.998C52.8685 226.424 53.9631 227.673 55.2687 228.671C56.5743 229.67 58.065 230.4 59.6544 230.817C61.2307 231.242 62.8754 231.35 64.4944 231.137C66.1133 230.924 67.6747 230.393 69.0891 229.574C70.5034 228.756 71.743 227.666 72.7368 226.367C73.7306 225.068 74.459 223.586 74.8805 222.006L75.0841 221.246C74.0422 223.36 72.2335 224.997 70.0281 225.821C67.8226 226.645 65.3871 226.595 63.2195 225.679Z" fill="#BC6A31"/>
</g>
<g id="Vector_17" style="mix-blend-mode:multiply">
<path d="M106.072 34.6623C106.618 32.4741 107.925 30.5518 109.757 29.2401C111.59 27.9284 113.828 27.3133 116.071 27.5049C118.308 27.7438 120.379 28.7944 121.894 30.4584C123.409 32.1224 124.264 34.285 124.296 36.5381C124.561 33.6335 123.796 30.7293 122.137 28.3344C120.478 25.9396 118.03 24.2068 115.222 23.4398C112.039 22.5868 108.646 23.0359 105.791 24.6884C102.935 26.3408 100.851 29.0612 99.996 32.2511L96.5109 45.2579C95.6797 48.4377 93.6246 51.1592 90.7959 52.8263C87.9671 54.4934 84.5953 54.9701 81.4189 54.1521L96.66 58.236C97.4336 58.4433 98.2581 58.3341 98.952 57.9326C99.6459 57.531 100.152 56.8699 100.36 56.0947L106.072 34.6623Z" fill="#BC6A31"/>
</g>
</g>
<path id="Vector_18" d="M191.496 174.575C202.661 177.566 215.387 166.27 219.923 149.345C224.458 132.419 219.084 116.273 207.92 113.282C196.755 110.291 184.029 121.586 179.493 138.512C174.958 155.437 180.332 171.583 191.496 174.575Z" fill="white"/>
<path id="Vector_19" d="M188.597 161.811C195.839 163.751 204.093 156.426 207.035 145.449C209.976 134.472 206.49 124 199.248 122.06C192.007 120.12 183.752 127.445 180.811 138.422C177.87 149.399 181.356 159.871 188.597 161.811Z" fill="#29151A"/>
</g>
</g>
</g>
<path id="Vector_20" d="M127.043 111.399C132.871 113.73 148.458 124.165 155.169 135.907C155.559 136.591 155.005 137.404 154.22 137.342C142.664 136.432 125.063 137.409 119.252 138.242M118.25 123.562C126.174 124.713 144.543 128.883 154.631 136.356" stroke="#29151A" stroke-width="5" stroke-linecap="round"/>
</g>
<defs>
<linearGradient id="paint0_linear_3860_1023" x1="33.979" y1="193.628" x2="239.743" y2="75.1072" gradientUnits="userSpaceOnUse">
<stop stop-color="#7E372A"/>
<stop offset="0.46" stop-color="#7F392C"/>
<stop offset="0.65" stop-color="#834033"/>
<stop offset="0.78" stop-color="#8B4C3F"/>
<stop offset="0.89" stop-color="#955D4F"/>
<stop offset="0.99" stop-color="#A27465"/>
<stop offset="1" stop-color="#A47768"/>
</linearGradient>
<clipPath id="clip0_3860_1023">
<rect width="228" height="233" fill="white" transform="translate(60.5371) rotate(15)"/>
</clipPath>
</defs>
</svg>
