<svg xmlns="http://www.w3.org/2000/svg" width="35" height="35" viewBox="0 0 35 35" fill="none">
  <g clip-path="url(#clip0_3532_6660)">
    <path d="M0 9.37773C0.303848 7.76234 0.591272 6.14696 1.46176 4.70554C3.44908 1.43335 6.56147 0.174176 10.1502 0.0913362C15.0364 -0.0329241 19.9308 -0.0246401 24.8252 0.0913362C28.1429 0.174176 31.0993 1.27595 33.1194 4.17536C34.4169 6.04755 34.9015 8.18483 34.9343 10.3967C35.0082 15.1351 35.0411 19.8819 34.9343 24.6203C34.844 28.4393 33.53 31.6949 29.9906 33.6333C28.3564 34.528 26.558 34.9174 24.7267 34.9422C19.8979 35.0002 15.0692 35.0499 10.2405 34.9422C6.61896 34.8594 3.47372 33.6251 1.46176 30.3197C0.591272 28.8866 0.303848 27.2629 0 25.6475L0 9.37773ZM17.5164 3.4298C15.1185 3.4298 12.7206 3.38009 10.3226 3.43808C6.5779 3.52921 4.27851 5.2937 3.5969 8.54932C3.44908 9.2369 3.34233 9.94932 3.34233 10.6535C3.31769 15.2345 3.26021 19.8156 3.35054 24.3967C3.44087 28.9529 5.72384 31.3884 10.0845 31.5541C15.0035 31.7363 19.9308 31.7197 24.8498 31.5541C28.4796 31.4298 30.6394 29.6736 31.3292 26.5091C31.4524 25.9458 31.5673 25.3659 31.5756 24.786C31.6002 19.5671 31.8876 14.3399 31.4195 9.12921C31.1403 6.03927 29.0955 4.02625 26.0406 3.60376C23.2074 3.21441 20.3578 3.48779 17.5164 3.4298Z" fill="white"/>
    <path d="M26.5332 17.5621C26.5167 22.4828 22.4682 26.5254 17.4999 26.5834C12.5151 26.6414 8.3762 22.4911 8.39263 17.4461C8.40905 12.484 12.6054 8.32543 17.5163 8.42484C22.5585 8.52425 26.5414 12.5669 26.525 17.5621H26.5332ZM23.1744 17.5207C23.1744 14.3893 20.6205 11.8213 17.4834 11.8047C14.3628 11.7882 11.7678 14.3645 11.7596 17.4876C11.7596 20.6189 14.3136 23.187 17.4506 23.2035C20.5712 23.2201 23.1662 20.6438 23.1744 17.5207Z" fill="white"/>
    <path d="M26.7806 6.03902C27.9795 6.02245 28.9978 7.02482 28.9978 8.226C28.9978 9.3692 28.0124 10.355 26.8545 10.3881C25.6555 10.4213 24.6126 9.43547 24.5962 8.24257C24.5715 7.04139 25.557 6.05559 26.7888 6.03902H26.7806Z" fill="white"/>
  </g>
  <defs>
    <clipPath id="clip0_3532_6660">
      <rect width="35" height="35" fill="white"/>
    </clipPath>
  </defs>
</svg>