<svg xmlns="http://www.w3.org/2000/svg" width="30" height="30" viewBox="0 0 30 30" fill="none">
  <path d="M9.23529 15C9.23529 17.2741 7.39176 19.1176 5.11765 19.1176C2.84353 19.1176 1 17.2741 1 15C1 12.7259 2.84353 10.8824 5.11765 10.8824C7.39176 10.8824 9.23529 12.7259 9.23529 15Z" fill="white"/>
  <path d="M29 5.11765C29 7.39176 27.1565 9.23529 24.8824 9.23529C22.6082 9.23529 20.7647 7.39176 20.7647 5.11765C20.7647 2.84353 22.6082 1 24.8824 1C27.1565 1 29 2.84353 29 5.11765Z" fill="white"/>
  <path d="M29 24.8824C29 27.1565 27.1565 29 24.8824 29C22.6082 29 20.7647 27.1565 20.7647 24.8824C20.7647 22.6082 22.6082 20.7647 24.8824 20.7647C27.1565 20.7647 29 22.6082 29 24.8824Z" fill="white"/>
  <path d="M24.8824 24.8824L5.11765 15L24.8824 5.11765M9.23529 15C9.23529 17.2741 7.39176 19.1176 5.11765 19.1176C2.84353 19.1176 1 17.2741 1 15C1 12.7259 2.84353 10.8824 5.11765 10.8824C7.39176 10.8824 9.23529 12.7259 9.23529 15ZM29 5.11765C29 7.39176 27.1565 9.23529 24.8824 9.23529C22.6082 9.23529 20.7647 7.39176 20.7647 5.11765C20.7647 2.84353 22.6082 1 24.8824 1C27.1565 1 29 2.84353 29 5.11765ZM29 24.8824C29 27.1565 27.1565 29 24.8824 29C22.6082 29 20.7647 27.1565 20.7647 24.8824C20.7647 22.6082 22.6082 20.7647 24.8824 20.7647C27.1565 20.7647 29 22.6082 29 24.8824Z" stroke="white" stroke-width="2"/>
</svg>