<svg xmlns="http://www.w3.org/2000/svg" width="71" height="70" viewBox="0 0 71 70" fill="none">
  <path d="M21.2857 68.5C27.1058 68.5 32.0817 64.3853 35.518 58.3716C38.9787 52.3155 41.0714 44.0492 41.0714 35C41.0714 25.9508 38.9787 17.6845 35.518 11.6284C32.0817 5.61471 27.1058 1.5 21.2857 1.5C15.4657 1.5 10.4898 5.61471 7.0534 11.6284C3.59277 17.6845 1.5 25.9508 1.5 35C1.5 44.0492 3.59277 52.3155 7.0534 58.3716C10.4898 64.3853 15.4657 68.5 21.2857 68.5Z" fill="white" stroke="#292929" stroke-width="3"/>
  <ellipse cx="17.7688" cy="34.9999" rx="4.92308" ry="13.7143" fill="#262626"/>
  <circle cx="19.1761" cy="27.6153" r="1.40659" fill="white"/>
  <path d="M48.7154 68.5C54.5355 68.5 59.5113 64.3853 62.9477 58.3716C66.4083 52.3155 68.5011 44.0492 68.5011 35C68.5011 25.9508 66.4083 17.6845 62.9477 11.6284C59.5113 5.61471 54.5355 1.5 48.7154 1.5C42.8954 1.5 37.9195 5.61471 34.4831 11.6284C31.0225 17.6845 28.9297 25.9508 28.9297 35C28.9297 44.0492 31.0225 52.3155 34.4831 58.3716C37.9195 64.3853 42.8954 68.5 48.7154 68.5Z" fill="white" stroke="#292929" stroke-width="3"/>
  <ellipse cx="45.1985" cy="34.9999" rx="4.92308" ry="13.7143" fill="#262626"/>
  <circle cx="46.6058" cy="27.6153" r="1.40659" fill="white"/>
</svg>