<svg width="16" height="16" viewBox="0 0 16 16" fill="none" xmlns="http://www.w3.org/2000/svg">
<circle cx="8.15102" cy="7.84926" r="6.03774" fill="#D1D1D1"/>
<path fill-rule="evenodd" clip-rule="evenodd" d="M4.86443 4.86541C5.0118 4.71804 5.25073 4.71804 5.3981 4.86541L8.14108 7.60839L10.8841 4.86541C11.0314 4.71804 11.2704 4.71804 11.4177 4.86541C11.5651 5.01278 11.5651 5.25171 11.4177 5.39907L8.67474 8.14205L11.4177 10.885C11.5651 11.0324 11.5651 11.2713 11.4177 11.4187C11.2704 11.5661 11.0314 11.5661 10.8841 11.4187L8.14108 8.67572L5.3981 11.4187C5.25073 11.5661 5.0118 11.5661 4.86443 11.4187C4.71706 11.2713 4.71706 11.0324 4.86443 10.885L7.60741 8.14205L4.86443 5.39907C4.71706 5.25171 4.71706 5.01278 4.86443 4.86541Z" fill="white"/>
</svg>
