<svg width="40" height="40" viewBox="0 0 40 40" fill="none" xmlns="http://www.w3.org/2000/svg">
<circle cx="20" cy="20" r="20" fill="#FFB800"/>
<path d="M14.565 21.5615C14.275 21.8538 13.9212 22 13.5035 22C13.0859 22 12.7309 21.855 12.4385 21.565C12.1462 21.275 12 20.9212 12 20.5035C12 20.0859 12.145 19.7309 12.435 19.4385C12.725 19.1462 13.0788 19 13.4965 19C13.9141 19 14.2691 19.145 14.5615 19.435C14.8538 19.725 15 20.0788 15 20.4965C15 20.9141 14.855 21.2691 14.565 21.5615Z" fill="white"/>
<path d="M20.985 21.5615C20.695 21.8538 20.3412 22 19.9235 22C19.5059 22 19.1509 21.855 18.8585 21.565C18.5662 21.275 18.42 20.9212 18.42 20.5035C18.42 20.0859 18.565 19.7309 18.855 19.4385C19.145 19.1462 19.4988 19 19.9165 19C20.3341 19 20.6891 19.145 20.9815 19.435C21.2738 19.725 21.42 20.0788 21.42 20.4965C21.42 20.9141 21.275 21.2691 20.985 21.5615Z" fill="white"/>
<path d="M27.375 21.5615C27.085 21.8538 26.7312 22 26.3135 22C25.8959 22 25.5409 21.855 25.2485 21.565C24.9562 21.275 24.81 20.9212 24.81 20.5035C24.81 20.0859 24.955 19.7309 25.245 19.4385C25.535 19.1462 25.8888 19 26.3065 19C26.7241 19 27.0791 19.145 27.3715 19.435C27.6638 19.725 27.81 20.0788 27.81 20.4965C27.81 20.9141 27.665 21.2691 27.375 21.5615Z" fill="white"/>
</svg>
